<svg width="24" height="24" viewBox="0 0 24 24" fill="none" xmlns="http://www.w3.org/2000/svg">
<path fill-rule="evenodd" clip-rule="evenodd" d="M21 12C21 16.9706 16.9706 21 12 21C7.02944 21 3 16.9706 3 12C3 7.02944 7.02944 3 12 3C16.9706 3 21 7.02944 21 12ZM19.5 12C19.5 7.85786 16.1421 4.5 12 4.5C10.0109 4.5 8.10322 5.29018 6.6967 6.6967C5.29018 8.10322 4.5 10.0109 4.5 12C4.5 16.1421 7.85786 19.5 12 19.5C16.1421 19.5 19.5 16.1421 19.5 12Z" fill="#999999"/>
<path d="M14.35 15.81C14.6455 16.0854 15.106 16.0772 15.3916 15.7916C15.6772 15.506 15.6854 15.0455 15.41 14.75L12.75 12.09L12.75 8C12.75 7.58579 12.4142 7.25 12 7.25C11.5858 7.25 11.25 7.58579 11.25 8L11.25 12.4C11.2502 12.5988 11.3293 12.7895 11.47 12.93L14.35 15.81Z" fill="#999999"/>
</svg>
