<svg width="25" height="25" viewBox="0 0 25 25" fill="none" xmlns="http://www.w3.org/2000/svg">
<g filter="url(#filter0_d_1378_2441)">
<path fill-rule="evenodd" clip-rule="evenodd" d="M8.18734 12.7712C8.18734 10.2399 10.2394 8.18783 12.7707 8.18783C13.9862 8.18783 15.152 8.67071 16.0116 9.53025C16.8711 10.3898 17.354 11.5556 17.354 12.7712C17.354 15.3025 15.302 17.3545 12.7707 17.3545C10.2394 17.3545 8.18734 15.3025 8.18734 12.7712ZM9.80656 13.9989C10.3031 15.1978 11.473 15.9795 12.7707 15.9795C14.5426 15.9795 15.979 14.5431 15.979 12.7712C15.979 11.4735 15.1973 10.3036 13.9984 9.80705C12.7996 9.31046 11.4196 9.58495 10.502 10.5025C9.58446 11.4201 9.30997 12.8001 9.80656 13.9989Z" fill="#F9F9F9"/>
<path d="M12.7707 7.04199C13.1483 7.03706 13.4532 6.73212 13.4582 6.35449V3.60449C13.4582 3.2248 13.1504 2.91699 12.7707 2.91699C12.391 2.91699 12.0832 3.2248 12.0832 3.60449V6.35449C12.0881 6.73212 12.393 7.03706 12.7707 7.04199Z" fill="#F9F9F9"/>
<path d="M12.7707 18.5003C12.393 18.5053 12.0881 18.8102 12.0832 19.1878V21.9378C12.0832 22.3175 12.391 22.6253 12.7707 22.6253C13.1504 22.6253 13.4582 22.3175 13.4582 21.9378V19.1878C13.4532 18.8102 13.1483 18.5053 12.7707 18.5003Z" fill="#F9F9F9"/>
<path d="M7.74734 8.71949C8.01575 8.98758 8.45059 8.98758 8.719 8.71949C8.98709 8.45108 8.98709 8.01624 8.719 7.74783L6.77567 5.80449C6.60428 5.62056 6.34616 5.54485 6.10257 5.60706C5.85898 5.66926 5.66878 5.85947 5.60657 6.10306C5.54436 6.34665 5.62007 6.60477 5.804 6.77616L7.74734 8.71949Z" fill="#F9F9F9"/>
<path d="M17.794 16.8228C17.5231 16.5704 17.101 16.5779 16.8392 16.8397C16.5774 17.1015 16.5699 17.5236 16.8223 17.7945L18.7657 19.7378C18.8939 19.8677 19.069 19.9404 19.2515 19.9395C19.4342 19.9414 19.6097 19.8686 19.7373 19.7378C20.0054 19.4694 20.0054 19.0346 19.7373 18.7662L17.794 16.8228Z" fill="#F9F9F9"/>
<path d="M7.0415 12.7712C7.03657 12.3935 6.73164 12.0886 6.354 12.0837H3.604C3.22431 12.0837 2.9165 12.3915 2.9165 12.7712C2.9165 13.1509 3.22431 13.4587 3.604 13.4587H6.354C6.73164 13.4537 7.03657 13.1488 7.0415 12.7712Z" fill="#F9F9F9"/>
<path d="M21.9373 12.0837H19.1873C18.8076 12.0837 18.4998 12.3915 18.4998 12.7712C18.4998 13.1509 18.8076 13.4587 19.1873 13.4587H21.9373C22.317 13.4587 22.6248 13.1509 22.6248 12.7712C22.6248 12.3915 22.317 12.0837 21.9373 12.0837Z" fill="#F9F9F9"/>
<path d="M7.74734 16.8228L5.804 18.7662C5.53592 19.0346 5.53592 19.4694 5.804 19.7378C5.93163 19.8686 6.10715 19.9414 6.28984 19.9395C6.47231 19.9404 6.64744 19.8677 6.77567 19.7378L8.719 17.7945C8.97142 17.5236 8.96397 17.1015 8.70216 16.8397C8.44035 16.5779 8.01822 16.5704 7.74734 16.8228Z" fill="#F9F9F9"/>
<path d="M17.354 8.92116C17.5365 8.92202 17.7116 8.84933 17.8398 8.71949L19.7373 6.77616C19.9213 6.60477 19.997 6.34665 19.9348 6.10306C19.8726 5.85947 19.6824 5.66926 19.4388 5.60706C19.1952 5.54485 18.9371 5.62056 18.7657 5.80449L16.8223 7.74783C16.5543 8.01624 16.5543 8.45108 16.8223 8.71949C16.9615 8.86134 17.1558 8.93505 17.354 8.92116Z" fill="#F9F9F9"/>
</g>
<defs>
<filter id="filter0_d_1378_2441" x="0" y="0" width="26" height="26" filterUnits="userSpaceOnUse" color-interpolation-filters="sRGB">
<feFlood flood-opacity="0" result="BackgroundImageFix"/>
<feColorMatrix in="SourceAlpha" type="matrix" values="0 0 0 0 0 0 0 0 0 0 0 0 0 0 0 0 0 0 127 0" result="hardAlpha"/>
<feOffset/>
<feGaussianBlur stdDeviation="1"/>
<feComposite in2="hardAlpha" operator="out"/>
<feColorMatrix type="matrix" values="0 0 0 0 0 0 0 0 0 0 0 0 0 0 0 0 0 0 0.25 0"/>
<feBlend mode="normal" in2="BackgroundImageFix" result="effect1_dropShadow_1378_2441"/>
<feBlend mode="normal" in="SourceGraphic" in2="effect1_dropShadow_1378_2441" result="shape"/>
</filter>
</defs>
</svg>
