<svg width="24" height="24" viewBox="0 0 24 24" fill="none" xmlns="http://www.w3.org/2000/svg">
  <path d="M10.9498 19.5196C11.0931 19.6548 11.2828 19.73 11.4798 19.7296C11.6761 19.7313 11.8643 19.6516 11.9998 19.5096C12.1428 19.3703 12.2234 19.1792 12.2234 18.9796C12.2234 18.78 12.1428 18.5889 11.9998 18.4496L6.29975 12.7495H19.52C19.9342 12.7495 20.27 12.4137 20.27 11.9995C20.27 11.5853 19.9342 11.2495 19.52 11.2495H6.29756L12.0098 5.51957C12.1528 5.38029 12.2334 5.18916 12.2334 4.98957C12.2334 4.78999 12.1528 4.59886 12.0098 4.45957C11.717 4.16712 11.2426 4.16712 10.9498 4.45957L3.94981 11.4596C3.65736 11.7524 3.65736 12.2268 3.94981 12.5196L10.9498 19.5196Z" fill="currentColor"/>
</svg>
