<svg width="171" height="18" viewBox="0 0 171 18" fill="none" xmlns="http://www.w3.org/2000/svg">
<g clip-path="url(#clip0_1424_7129)">
<path d="M9.40523 7.99162L13.288 8.01047C16.266 8.01047 18.6785 10.423 18.6785 13.401H9.40523V15.9267C9.40523 16.511 8.93403 16.9822 8.34974 16.9822H1.07435C0.490052 16.9822 0 16.511 0 15.9079V1.07435C0 0.490052 0.471204 0 1.07435 0H19.0178C19.0178 3.67539 16.0398 6.6534 12.3644 6.6534H9.40523" fill="#448FFF"/>
<path d="M20.9015 2.93945H26.5936C27.1779 2.93945 27.668 3.41066 27.668 4.0138V7.42532H27.6491C25.8774 7.80228 24.5769 8.085 23.7099 8.25464C23.0879 8.38657 22.2209 8.57506 21.1465 8.80123C20.4868 8.93317 19.846 8.44312 19.846 7.76458V4.0138C19.846 3.42951 20.3172 2.93945 20.9203 2.93945H20.9015ZM19.8271 14.5122V9.06511H26.5748C27.1591 9.06511 27.6491 9.53631 27.6491 10.1395V15.8881C27.6491 16.4724 27.1779 16.9625 26.5748 16.9625H19.8271V14.5122Z" fill="#448FFF"/>
<path d="M28.5732 14.4562V4.0143C28.5732 3.41116 29.0633 2.93995 29.6476 2.93995H36.3952V15.8886C36.3952 16.4918 35.9052 16.963 35.3209 16.963H28.5732V14.4562ZM37.4884 13.7211C38.902 10.875 39.1659 9.21639 38.28 8.76404C37.9408 8.5944 37.5638 8.53786 37.1492 8.6321C36.7345 8.72634 36.4895 8.83943 36.3952 8.99022L38.2047 3.18498C39.2978 2.69493 40.5041 2.46875 41.7858 2.46875C43.1806 2.46875 44.3303 2.80802 45.2539 3.4677C46.1774 4.12739 46.6298 5.14519 46.6298 6.52111V15.9452C46.6298 16.5295 46.1586 17.0007 45.5743 17.0007H39.4863C38.4308 15.2855 38.5439 15.474 37.5073 13.7588L37.4884 13.7211Z" fill="#448FFF"/>
<path d="M5.12709 6.20047C5.92863 6.20047 6.5784 5.5507 6.5784 4.74916C6.5784 3.94762 5.92863 3.29785 5.12709 3.29785C4.32555 3.29785 3.67578 3.94762 3.67578 4.74916C3.67578 5.5507 4.32555 6.20047 5.12709 6.20047Z" fill="white"/>
<path d="M57.3864 10.6693C57.3864 10.6693 57.3864 10.6693 57.4241 10.6693H66.245V17.3227H48V0.359375H57.3864V10.6316C57.3864 10.6316 57.3864 10.6505 57.3864 10.6693Z" fill="#474747"/>
<path d="M78.8164 11.7813C79.2499 11.4986 79.4761 11.1028 79.5138 10.6127L86.5065 12.8933C86.2238 13.8546 85.6395 14.7216 84.7536 15.5132C83.8677 16.3049 82.7557 16.908 81.3986 17.3415C80.0416 17.7939 78.5526 18.0012 76.9505 18.0012C75.028 18.0012 73.2939 17.7185 71.7484 17.1342C70.2028 16.5499 68.9965 15.6829 68.1107 14.5331C67.2248 13.3834 66.7725 11.9698 66.7725 10.3111C66.7725 8.65251 67.2248 7.23889 68.1107 6.08916C68.9965 4.93942 70.2217 4.0724 71.7672 3.48811C73.3128 2.90382 75.028 2.62109 76.9505 2.62109C78.873 2.62109 80.6259 2.90382 82.0772 3.48811C83.5473 4.0724 84.6782 4.95827 85.4887 6.1457C86.2992 7.33314 86.7138 8.82214 86.7138 10.5939H74.3683C74.3683 10.9331 74.5002 11.2159 74.6887 11.442C74.896 11.6682 75.1976 11.8567 75.5746 11.9886C75.9704 12.1206 76.4416 12.196 76.9693 12.196C77.7609 12.196 78.3829 12.0452 78.8164 11.7625V11.7813ZM75.0845 8.74675C74.6133 9.01062 74.3683 9.38759 74.3683 9.85879V9.89649C74.3683 9.89649 74.3683 9.89649 74.3871 9.89649H79.4384H79.4573V9.85879C79.4573 9.38759 79.2311 9.02947 78.7599 8.74675C78.2887 8.48287 77.6855 8.33209 76.9316 8.33209C76.1777 8.33209 75.5557 8.46403 75.0845 8.74675Z" fill="#474747"/>
<path d="M87.3733 3.26118L95.1011 1.41406V9.31144V9.34914C95.1011 9.70726 95.2142 10.0277 95.4215 10.2915C95.6477 10.5554 95.9493 10.7439 96.3451 10.8758C96.7409 11.0078 97.1932 11.0643 97.721 11.0643C98.3995 11.0643 99.0592 10.9135 99.7189 10.612C100.379 10.3104 100.831 9.93343 101.095 9.46223V16.3418C100.473 16.8319 99.6623 17.19 98.6445 17.4539C97.6267 17.7177 96.5901 17.8497 95.5158 17.8497C93.9514 17.8497 92.5566 17.6046 91.3126 17.0957C90.0686 16.5868 89.1262 15.8518 88.41 14.8717C87.7126 13.8915 87.3545 12.7418 87.3545 11.4224V3.26118H87.3733ZM95.7231 7.14391C95.855 6.635 95.987 6.1261 96.1189 5.59836C96.2508 5.07061 96.4393 4.31668 96.7032 3.29888H101.114V9.44338H95.1388C95.4027 8.42558 95.5911 7.65281 95.7231 7.14391Z" fill="#474747"/>
<path d="M102.225 9.02902V3.24263L109.953 1.39551V9.33059C109.953 9.6887 110.066 10.0091 110.273 10.273C110.499 10.5369 110.801 10.7254 111.197 10.8573C111.592 10.9892 112.045 11.0458 112.573 11.0458C113.251 11.0458 113.911 10.895 114.57 10.5934C115.23 10.2918 115.682 9.91488 115.946 9.44368V16.3233C115.324 16.8133 114.514 17.1714 113.496 17.4353C112.478 17.6992 111.442 17.8311 110.367 17.8311C108.803 17.8311 107.408 17.5861 106.164 17.0772C104.939 16.5683 103.978 15.8332 103.262 14.8531C102.564 13.873 102.206 12.7233 102.206 11.4039V9.02902H102.225ZM110.556 7.12535C110.688 6.61645 110.82 6.10755 110.952 5.5798C111.084 5.05205 111.272 4.29813 111.536 3.28032H115.946V9.42483H109.972C110.235 8.40703 110.424 7.63425 110.556 7.12535Z" fill="#474747"/>
<path d="M128.689 11.7813C129.122 11.4986 129.348 11.1028 129.386 10.6127L136.379 12.8933C136.096 13.8546 135.512 14.7216 134.626 15.5132C133.74 16.3049 132.628 16.908 131.271 17.3415C129.914 17.7939 128.425 18.0012 126.823 18.0012C124.9 18.0012 123.166 17.7185 121.62 17.1342C120.075 16.5499 118.869 15.6829 117.983 14.5331C117.097 13.3834 116.645 11.9698 116.645 10.3111C116.645 8.65251 117.097 7.23889 117.983 6.08916C118.869 4.93942 120.094 4.0724 121.639 3.48811C123.185 2.90382 124.9 2.62109 126.823 2.62109C128.745 2.62109 130.498 2.90382 131.949 3.48811C133.419 4.0724 134.55 4.95827 135.361 6.1457C136.171 7.33314 136.586 8.82214 136.586 10.5939H124.24C124.24 10.9331 124.372 11.2159 124.561 11.442C124.768 11.6682 125.07 11.8567 125.447 11.9886C125.842 12.1206 126.314 12.196 126.841 12.196C127.633 12.196 128.255 12.0452 128.689 11.7625V11.7813ZM124.957 8.74675C124.485 9.01062 124.24 9.38759 124.24 9.85879V9.89649C124.24 9.89649 124.24 9.89649 124.259 9.89649H129.311H129.329V9.85879C129.329 9.38759 129.103 9.02947 128.632 8.74675C128.161 8.48287 127.558 8.33209 126.804 8.33209C126.05 8.33209 125.428 8.46403 124.957 8.74675Z" fill="#474747"/>
<path d="M145.03 5.39079V17.3405H137.208V3.29865H145.03V5.37194V5.39079ZM147.82 3.58137C148.687 3.07247 149.61 2.82744 150.609 2.80859C151.608 2.80859 152.343 2.99708 152.852 3.39289L151.137 11.7992C150.59 11.3468 149.874 11.0641 148.988 10.951C148.102 10.8379 147.273 10.8756 146.481 11.0829C145.69 11.2903 145.218 11.573 144.992 11.95L146.217 5.862C146.406 4.8442 146.953 4.09027 147.82 3.58137Z" fill="#474747"/>
</g>
<defs>
<clipPath id="clip0_1424_7129">
<rect width="170.406" height="18" fill="white"/>
</clipPath>
</defs>
</svg>
