<svg width="20" height="20" viewBox="0 0 20 20" fill="none" xmlns="http://www.w3.org/2000/svg">
<path fill-rule="evenodd" clip-rule="evenodd" d="M5.27083 9.99967C5.27083 7.46837 7.32286 5.41634 9.85417 5.41634C11.0697 5.41634 12.2355 5.89923 13.0951 6.75877C13.9546 7.61831 14.4375 8.7841 14.4375 9.99967C14.4375 12.531 12.3855 14.583 9.85417 14.583C7.32286 14.583 5.27083 12.531 5.27083 9.99967ZM6.89005 11.2275C7.38664 12.4263 8.55652 13.208 9.85417 13.208C11.6261 13.208 13.0625 11.7716 13.0625 9.99967C13.0625 8.70203 12.2808 7.53215 11.0819 7.03556C9.88307 6.53897 8.50311 6.81346 7.58553 7.73104C6.66795 8.64862 6.39346 10.0286 6.89005 11.2275Z" fill="#626262"/>
<path d="M9.85417 4.27051C10.2318 4.26557 10.5367 3.96064 10.5417 3.58301V0.833008C10.5417 0.453312 10.2339 0.145508 9.85417 0.145508C9.47447 0.145508 9.16667 0.453312 9.16667 0.833008V3.58301C9.1716 3.96064 9.47653 4.26557 9.85417 4.27051Z" fill="#626262"/>
<path d="M9.85417 15.7288C9.47653 15.7338 9.1716 16.0387 9.16667 16.4163V19.1663C9.16667 19.546 9.47447 19.8538 9.85417 19.8538C10.2339 19.8538 10.5417 19.546 10.5417 19.1663V16.4163C10.5367 16.0387 10.2318 15.7338 9.85417 15.7288Z" fill="#626262"/>
<path d="M4.83083 5.94801C5.09925 6.21609 5.53408 6.21609 5.8025 5.94801C6.07058 5.67959 6.07058 5.24476 5.8025 4.97634L3.85917 3.03301C3.68778 2.84908 3.42966 2.77336 3.18607 2.83557C2.94248 2.89778 2.75227 3.08799 2.69006 3.33158C2.62786 3.57517 2.70357 3.83328 2.8875 4.00467L4.83083 5.94801Z" fill="#626262"/>
<path d="M14.8775 14.0513C14.6066 13.7989 14.1845 13.8064 13.9227 14.0682C13.6609 14.33 13.6534 14.7521 13.9058 15.023L15.8492 16.9663C15.9774 17.0962 16.1525 17.1689 16.335 17.168C16.5177 17.1699 16.6932 17.0971 16.8208 16.9663C17.0889 16.6979 17.0889 16.2631 16.8208 15.9947L14.8775 14.0513Z" fill="#626262"/>
<path d="M4.125 9.99967C4.12006 9.62204 3.81513 9.31711 3.4375 9.31217H0.6875C0.307804 9.31217 0 9.61998 0 9.99967C0 10.3794 0.307804 10.6872 0.6875 10.6872H3.4375C3.81513 10.6822 4.12006 10.3773 4.125 9.99967Z" fill="#626262"/>
<path d="M19.0208 9.31217H16.2708C15.8911 9.31217 15.5833 9.61998 15.5833 9.99967C15.5833 10.3794 15.8911 10.6872 16.2708 10.6872H19.0208C19.4005 10.6872 19.7083 10.3794 19.7083 9.99967C19.7083 9.61998 19.4005 9.31217 19.0208 9.31217Z" fill="#626262"/>
<path d="M4.83083 14.0513L2.8875 15.9947C2.61942 16.2631 2.61942 16.6979 2.8875 16.9663C3.01512 17.0971 3.19065 17.1699 3.37333 17.168C3.55581 17.1689 3.73094 17.0962 3.85916 16.9663L5.8025 15.023C6.05491 14.7521 6.04746 14.33 5.78565 14.0682C5.52384 13.8064 5.10172 13.7989 4.83083 14.0513Z" fill="#626262"/>
<path d="M14.4375 6.14967C14.62 6.15054 14.7951 6.07784 14.9233 5.94801L16.8208 4.00467C17.0048 3.83328 17.0805 3.57517 17.0183 3.33158C16.9561 3.08799 16.7659 2.89778 16.5223 2.83557C16.2787 2.77336 16.0206 2.84908 15.8492 3.03301L13.9058 4.97634C13.6378 5.24476 13.6378 5.67959 13.9058 5.94801C14.045 6.08985 14.2393 6.16356 14.4375 6.14967Z" fill="#626262"/>
</svg>
