<svg width="62" height="64" viewBox="0 0 62 64" fill="none" xmlns="http://www.w3.org/2000/svg">
<ellipse cx="19.5609" cy="17.0053" rx="19.5609" ry="17.0053" transform="matrix(0.937804 -0.347165 0.339614 0.940565 3.54639 23.208)" fill="#272727"/>
<path d="M11.0974 8.82578C15.583 8.17694 17.1078 16.5218 17.3272 20.9753C17.334 21.1129 17.2873 21.2446 17.1984 21.3498L16.6084 22.0467C16.2864 22.4271 15.6612 22.2093 15.627 21.7121C14.9697 12.146 12.8822 12.3968 12.1825 12.3968C10.0638 12.3968 9.74102 15.6929 8.9272 16.517C8.11337 17.341 3.77296 21.1863 2.41659 19.2638C1.06021 17.3412 5.40062 9.64981 11.0974 8.82578Z" fill="#272727"/>
<path d="M26.5588 4.59733C22.3641 6.33061 25.2085 14.3111 27.2401 18.2678C27.3034 18.391 27.4101 18.4816 27.54 18.5271L28.4016 18.8287C28.8686 18.9922 29.2958 18.4855 29.077 18.0384C24.872 9.44319 26.7992 8.59222 27.4032 8.23442C29.2319 7.15109 31.1543 9.83106 32.2677 10.1262C33.3812 10.4213 39.0452 11.521 39.2571 9.16806C39.4691 6.81512 31.8868 2.39574 26.5588 4.59733Z" fill="#272727"/>
<circle cx="22.5123" cy="36.5328" r="1.09018" fill="white" stroke="white" stroke-width="0.549356"/>
<circle cx="30.65" cy="34.3346" r="1.09018" fill="white" stroke="white" stroke-width="0.549356"/>
<rect width="2.18404" height="6.00511" transform="matrix(0.697964 0.716133 -0.707378 0.706835 16.0063 41.8682)" fill="#2F6BC7"/>
<rect width="3.27378" height="6.00511" rx="0.549356" transform="matrix(0.697964 0.716133 -0.707378 0.706835 14.5522 42.3008)" fill="#00255C"/>
<rect x="-0.150069" y="-0.360138" width="2.7119" height="0.845126" rx="0.422563" transform="matrix(-0.923009 -0.384779 0.376664 -0.92635 23.4701 33.6577)" fill="#D5D5D5" stroke="#D5D5D5" stroke-width="0.549356"/>
<rect x="-0.383505" y="0.0446026" width="2.73111" height="0.837008" rx="0.418504" transform="matrix(-0.615917 0.787811 -0.780281 -0.62543 29.6407 30.9069)" fill="#D5D5D5" stroke="#D5D5D5" stroke-width="0.549356"/>
<rect x="-0.278659" y="0.123893" width="1.62361" height="0.433089" rx="0.216545" transform="matrix(-0.354954 0.934884 -0.931887 -0.362748 19.7179 39.7477)" stroke="#FF5959" stroke-width="0.433089"/>
<rect x="-0.278659" y="0.123893" width="1.62361" height="0.433089" rx="0.216545" transform="matrix(-0.354954 0.934884 -0.931887 -0.362748 34.9093 35.903)" stroke="#FF5959" stroke-width="0.433089"/>
<rect x="-0.278659" y="0.123893" width="1.62361" height="0.433089" rx="0.216545" transform="matrix(-0.354954 0.934884 -0.931887 -0.362748 21.3448 39.7477)" stroke="#FF5959" stroke-width="0.433089"/>
<rect x="-0.278659" y="0.123893" width="1.62361" height="0.433089" rx="0.216545" transform="matrix(-0.354954 0.934884 -0.931887 -0.362748 36.5362 35.903)" stroke="#FF5959" stroke-width="0.433089"/>
<path d="M20.0703 34.335C22.6017 34.3351 24.6717 36.4156 24.6719 39.0039C24.6719 41.5924 22.6019 43.6737 20.0703 43.6738C17.5386 43.6738 15.4688 41.5925 15.4688 39.0039C15.469 36.4155 17.5388 34.335 20.0703 34.335Z" fill="white" fill-opacity="0.4" stroke="#448FFF" stroke-width="1.64807"/>
<path d="M25.4956 41.2019C25.4956 40.4694 26.635 38.6748 30.1073 38.4551" stroke="#D5D5D5" stroke-width="0.549356" stroke-linecap="round"/>
<path d="M31.464 36.8066C30.7763 37.199 29.7103 38.4076 30.9482 40.1028" stroke="#D5D5D5" stroke-width="0.549356" stroke-linecap="round"/>
<path d="M5.06706 35.9817C5.47972 35.9156 5.74452 36.4131 5.45948 36.7191L4.54482 37.7008C4.46034 37.7915 4.41823 37.9141 4.42892 38.0384L4.5347 39.2679C4.57002 39.6784 4.07588 39.9057 3.78707 39.6118L2.93605 38.7458C2.84712 38.6553 2.72396 38.6075 2.59805 38.6145L1.27803 38.6885C0.86081 38.7119 0.647651 38.1906 0.961944 37.9155L1.8713 37.1195C1.98023 37.0242 2.03492 36.8806 2.01743 36.736L1.85734 35.4121C1.806 34.9876 2.32513 34.7489 2.61404 35.0641L3.50101 36.032C3.60113 36.1413 3.74884 36.193 3.89419 36.1697L5.06706 35.9817Z" fill="#FFBC02"/>
<path d="M3.43571 43.7805C3.84837 43.7144 4.11317 44.212 3.82813 44.5179L3.40813 44.9687C3.32365 45.0594 3.28154 45.182 3.29223 45.3062L3.33971 45.8581C3.37503 46.2686 2.88089 46.496 2.59208 46.2021L2.21487 45.8182C2.12595 45.7277 2.00278 45.6799 1.87687 45.687L1.27665 45.7206C0.859429 45.744 0.646268 45.2227 0.960562 44.9476L1.34317 44.6127C1.45209 44.5173 1.50679 44.3738 1.48929 44.2291L1.4196 43.6528C1.36826 43.2282 1.88739 42.9895 2.1763 43.3048L2.55736 43.7206C2.65748 43.8299 2.80519 43.8816 2.95054 43.8583L3.43571 43.7805Z" fill="#FFBC02"/>
<path d="M61.3039 58.5056C65.9156 53.837 46.1125 38.1797 42.5859 40.1021C42.7877 42.4511 43.2315 43.0761 45.2987 45.0473C49.0965 44.7726 55.0646 52.4636 55.3359 53.012C55.6072 53.5604 55.3359 54.9348 56.421 57.6815C57.2891 59.879 60.038 59.1465 61.3039 58.5056Z" fill="#272727"/>
<path d="M42.3146 39.5537L24.6817 47.2447C24.0306 48.3434 24.0487 61.8942 24.1391 64.0001H50.1816C50.1816 59.825 47.288 46.0544 45.8412 44.2232L42.3146 39.5537Z" fill="#272727"/>
<path d="M13.3403 45.942C9.86797 44.4038 7.10098 48.4065 6.28717 50.058C5.2021 52.2555 4.71109 56.9543 4.93076 59.401C5.20203 62.4225 9.74798 63.4992 11.1701 62.1439C15.7818 57.749 23.8687 52.4636 26.0389 53.5623L24.6825 48.3435C14.1028 49.1675 9.16575 59.8242 9.81375 57.1997C10.3563 55.0022 10.5371 53.175 11.7126 52.2594C13.702 50.7945 16.8126 47.4802 13.3403 45.942Z" fill="#272727"/>
</svg>
