<svg width="240" height="356" viewBox="0 0 240 356" fill="none" xmlns="http://www.w3.org/2000/svg">
<g filter="url(#filter0_d_552_5928)">
<rect x="37.5" y="12" width="165" height="74" rx="16" fill="white"/>
<path d="M77.4105 32.706H79.3545V33.318C79.3545 34.266 79.1805 35.166 78.8325 36.018C78.4965 36.858 77.9805 37.59 77.2845 38.214C76.6005 38.838 75.7245 39.3 74.6565 39.6L73.5405 37.728C74.4525 37.476 75.1905 37.128 75.7545 36.684C76.3305 36.228 76.7505 35.706 77.0145 35.118C77.2785 34.53 77.4105 33.93 77.4105 33.318V32.706ZM77.8605 32.706H79.8045V33.318C79.8045 33.882 79.9365 34.44 80.2005 34.992C80.4765 35.532 80.8965 36.018 81.4605 36.45C82.0245 36.882 82.7505 37.218 83.6385 37.458L82.5585 39.312C81.5025 39.024 80.6265 38.586 79.9305 37.998C79.2345 37.398 78.7125 36.696 78.3645 35.892C78.0285 35.088 77.8605 34.23 77.8605 33.318V32.706ZM74.1345 31.572H83.0985V33.444H74.1345V31.572ZM77.4105 29.862H79.8045V32.4H77.4105V29.862ZM84.3945 29.934H86.7885V39.69H84.3945V29.934ZM86.1405 33.804H89.0025V35.784H86.1405V33.804ZM75.9525 40.392H86.7885V46.422H75.9525V40.392ZM84.4485 42.264H78.3105V44.532H84.4485V42.264ZM97.6595 31.176H99.6215V32.184C99.6215 33.168 99.4475 34.098 99.0995 34.974C98.7635 35.85 98.2415 36.612 97.5335 37.26C96.8255 37.908 95.9255 38.388 94.8335 38.7L93.6815 36.81C94.6175 36.546 95.3795 36.174 95.9675 35.694C96.5555 35.214 96.9815 34.668 97.2455 34.056C97.5215 33.432 97.6595 32.808 97.6595 32.184V31.176ZM98.1635 31.176H100.09V32.184C100.09 32.748 100.222 33.312 100.486 33.876C100.762 34.44 101.182 34.95 101.746 35.406C102.322 35.862 103.054 36.216 103.942 36.468L102.844 38.322C101.788 38.034 100.912 37.584 100.216 36.972C99.5195 36.36 99.0035 35.64 98.6675 34.812C98.3315 33.984 98.1635 33.108 98.1635 32.184V31.176ZM94.3475 30.672H103.348V32.58H94.3475V30.672ZM104.716 29.934H107.11V38.448H104.716V29.934ZM106.156 33.192H109.306V35.136H106.156V33.192ZM96.1115 39.096H107.11V43.56H98.5055V45.666H96.1295V41.868H104.752V40.896H96.1115V39.096ZM96.1295 44.622H107.596V46.44H96.1295V44.622ZM122.12 29.934H124.406V40.194H122.12V29.934ZM120.104 34.2H122.75V36.126H120.104V34.2ZM118.682 30.15H120.914V40.014H118.682V30.15ZM110.114 31.536H118.214V33.372H110.114V31.536ZM114.182 33.894C114.89 33.894 115.514 34.02 116.054 34.272C116.594 34.512 117.014 34.854 117.314 35.298C117.626 35.73 117.782 36.234 117.782 36.81C117.782 37.374 117.626 37.878 117.314 38.322C117.014 38.754 116.594 39.096 116.054 39.348C115.514 39.588 114.89 39.708 114.182 39.708C113.498 39.708 112.88 39.588 112.328 39.348C111.788 39.096 111.362 38.754 111.05 38.322C110.738 37.878 110.582 37.374 110.582 36.81C110.582 36.234 110.738 35.73 111.05 35.298C111.362 34.854 111.788 34.512 112.328 34.272C112.88 34.02 113.498 33.894 114.182 33.894ZM114.182 35.604C113.75 35.604 113.396 35.706 113.12 35.91C112.856 36.114 112.724 36.414 112.724 36.81C112.724 37.194 112.856 37.494 113.12 37.71C113.396 37.914 113.75 38.016 114.182 38.016C114.614 38.016 114.968 37.914 115.244 37.71C115.52 37.494 115.658 37.194 115.658 36.81C115.658 36.414 115.52 36.114 115.244 35.91C114.968 35.706 114.614 35.604 114.182 35.604ZM112.994 30.042H115.352V32.832H112.994V30.042ZM114.218 40.716H116.018V41.04C116.018 41.82 115.88 42.57 115.604 43.29C115.34 43.998 114.932 44.622 114.38 45.162C113.828 45.702 113.114 46.11 112.238 46.386L111.122 44.64C111.854 44.424 112.442 44.13 112.886 43.758C113.342 43.374 113.678 42.948 113.894 42.48C114.11 42.012 114.218 41.532 114.218 41.04V40.716ZM114.83 40.716H116.54V41.04C116.54 41.532 116.636 42.024 116.828 42.516C117.02 42.996 117.32 43.434 117.728 43.83C118.136 44.226 118.67 44.55 119.33 44.802L118.394 46.548C117.53 46.248 116.834 45.81 116.306 45.234C115.79 44.658 115.412 44.01 115.172 43.29C114.944 42.558 114.83 41.808 114.83 41.04V40.716ZM120.23 40.716H121.94V41.04C121.94 41.748 121.82 42.474 121.58 43.218C121.34 43.95 120.962 44.61 120.446 45.198C119.93 45.786 119.246 46.236 118.394 46.548L117.44 44.802C118.1 44.526 118.634 44.184 119.042 43.776C119.45 43.356 119.75 42.906 119.942 42.426C120.134 41.946 120.23 41.484 120.23 41.04V40.716ZM120.806 40.716H122.588V41.04C122.588 41.556 122.696 42.054 122.912 42.534C123.128 43.014 123.464 43.44 123.92 43.812C124.388 44.172 124.982 44.448 125.702 44.64L124.568 46.386C123.692 46.11 122.978 45.708 122.426 45.18C121.874 44.664 121.466 44.052 121.202 43.344C120.938 42.636 120.806 41.868 120.806 41.04V40.716ZM130.957 31.068C131.785 31.068 132.523 31.314 133.171 31.806C133.831 32.286 134.341 32.976 134.701 33.876C135.073 34.764 135.259 35.814 135.259 37.026C135.259 38.25 135.073 39.312 134.701 40.212C134.341 41.1 133.831 41.79 133.171 42.282C132.523 42.762 131.785 43.002 130.957 43.002C130.129 43.002 129.391 42.762 128.743 42.282C128.095 41.79 127.585 41.1 127.213 40.212C126.841 39.312 126.655 38.25 126.655 37.026C126.655 35.814 126.841 34.764 127.213 33.876C127.585 32.976 128.095 32.286 128.743 31.806C129.391 31.314 130.129 31.068 130.957 31.068ZM130.957 33.246C130.561 33.246 130.207 33.39 129.895 33.678C129.595 33.966 129.361 34.392 129.193 34.956C129.025 35.508 128.941 36.198 128.941 37.026C128.941 37.842 129.025 38.538 129.193 39.114C129.361 39.678 129.595 40.104 129.895 40.392C130.207 40.68 130.561 40.824 130.957 40.824C131.377 40.824 131.737 40.68 132.037 40.392C132.337 40.104 132.571 39.678 132.739 39.114C132.907 38.538 132.991 37.842 132.991 37.026C132.991 36.198 132.907 35.508 132.739 34.956C132.571 34.392 132.337 33.966 132.037 33.678C131.737 33.39 131.377 33.246 130.957 33.246ZM137.995 29.898H140.389V46.62H137.995V29.898ZM134.557 35.928H139.003V37.836H134.557V35.928ZM145.913 38.394H148.307V43.056H145.913V38.394ZM151.961 38.394H154.355V43.056H151.961V38.394ZM142.601 42.714H157.703V44.658H142.601V42.714ZM150.125 30.744C151.325 30.744 152.393 30.93 153.329 31.302C154.277 31.674 155.015 32.196 155.543 32.868C156.083 33.528 156.353 34.314 156.353 35.226C156.353 36.126 156.083 36.912 155.543 37.584C155.015 38.244 154.277 38.76 153.329 39.132C152.393 39.504 151.325 39.69 150.125 39.69C148.937 39.69 147.869 39.504 146.921 39.132C145.985 38.76 145.247 38.244 144.707 37.584C144.167 36.912 143.897 36.126 143.897 35.226C143.897 34.314 144.167 33.528 144.707 32.868C145.247 32.196 145.985 31.674 146.921 31.302C147.869 30.93 148.937 30.744 150.125 30.744ZM150.125 32.598C149.357 32.598 148.679 32.706 148.091 32.922C147.515 33.126 147.065 33.42 146.741 33.804C146.417 34.188 146.255 34.662 146.255 35.226C146.255 35.766 146.417 36.234 146.741 36.63C147.065 37.014 147.515 37.314 148.091 37.53C148.679 37.734 149.357 37.836 150.125 37.836C150.905 37.836 151.583 37.734 152.159 37.53C152.747 37.314 153.197 37.014 153.509 36.63C153.833 36.234 153.995 35.766 153.995 35.226C153.995 34.662 153.833 34.188 153.509 33.804C153.197 33.42 152.747 33.126 152.159 32.922C151.583 32.706 150.905 32.598 150.125 32.598ZM161.903 32.2031L161.613 41.0889H159.503L159.204 32.2031H161.903ZM159.134 43.8398C159.134 43.4648 159.263 43.1543 159.521 42.9082C159.785 42.6562 160.13 42.5303 160.558 42.5303C160.992 42.5303 161.337 42.6562 161.595 42.9082C161.853 43.1543 161.982 43.4648 161.982 43.8398C161.982 44.2031 161.853 44.5107 161.595 44.7627C161.337 45.0146 160.992 45.1406 160.558 45.1406C160.13 45.1406 159.785 45.0146 159.521 44.7627C159.263 44.5107 159.134 44.2031 159.134 43.8398ZM65.2164 58.5029H66.5699C67.0035 58.5029 67.3609 58.4297 67.6421 58.2832C67.9234 58.1309 68.1314 57.9199 68.2662 57.6504C68.4068 57.375 68.4771 57.0557 68.4771 56.6924C68.4771 56.3643 68.4127 56.0742 68.2837 55.8223C68.1607 55.5645 67.9703 55.3652 67.7125 55.2246C67.4546 55.0781 67.1295 55.0049 66.7369 55.0049C66.4263 55.0049 66.1392 55.0664 65.8755 55.1895C65.6119 55.3125 65.4009 55.4854 65.2427 55.708C65.0845 55.9307 65.0054 56.2002 65.0054 56.5166H62.4654C62.4654 55.8135 62.6529 55.2012 63.0279 54.6797C63.4087 54.1582 63.9185 53.751 64.5572 53.458C65.1959 53.165 65.899 53.0186 66.6666 53.0186C67.5337 53.0186 68.2925 53.1592 68.9429 53.4404C69.5933 53.7158 70.1002 54.123 70.4634 54.6621C70.8267 55.2012 71.0084 55.8691 71.0084 56.666C71.0084 57.0703 70.9146 57.4629 70.7271 57.8438C70.5396 58.2188 70.2701 58.5586 69.9185 58.8633C69.5728 59.1621 69.1509 59.4023 68.6529 59.584C68.1548 59.7598 67.5953 59.8477 66.9742 59.8477H65.2164V58.5029ZM65.2164 60.4277V59.1182H66.9742C67.6714 59.1182 68.2837 59.1973 68.8111 59.3555C69.3384 59.5137 69.7808 59.7422 70.1382 60.041C70.4957 60.334 70.7652 60.6826 70.9468 61.0869C71.1285 61.4854 71.2193 61.9277 71.2193 62.4141C71.2193 63.0117 71.105 63.5449 70.8765 64.0137C70.648 64.4766 70.3257 64.8691 69.9097 65.1914C69.4996 65.5137 69.0191 65.7598 68.4683 65.9297C67.9175 66.0938 67.317 66.1758 66.6666 66.1758C66.1275 66.1758 65.5972 66.1025 65.0757 65.9561C64.5601 65.8037 64.0914 65.5781 63.6695 65.2793C63.2535 64.9746 62.9195 64.5938 62.6675 64.1367C62.4214 63.6738 62.2984 63.126 62.2984 62.4932H64.8384C64.8384 62.8213 64.9205 63.1143 65.0845 63.3721C65.2486 63.6299 65.4742 63.832 65.7613 63.9785C66.0543 64.125 66.3795 64.1982 66.7369 64.1982C67.1412 64.1982 67.4869 64.125 67.774 63.9785C68.067 63.8262 68.2896 63.6152 68.442 63.3457C68.6002 63.0703 68.6793 62.751 68.6793 62.3877C68.6793 61.9189 68.5943 61.5439 68.4244 61.2627C68.2545 60.9756 68.0113 60.7646 67.6949 60.6299C67.3785 60.4951 67.0035 60.4277 66.5699 60.4277H65.2164ZM84.4466 50.916H86.7146V67.584H84.4466V50.916ZM82.3226 57.198H85.0946V59.124H82.3226V57.198ZM77.3546 52.968H79.6586C79.6586 54.144 79.5566 55.26 79.3526 56.316C79.1606 57.372 78.8366 58.374 78.3806 59.322C77.9246 60.258 77.3066 61.134 76.5266 61.95C75.7586 62.754 74.7926 63.498 73.6286 64.182L72.2426 62.508C73.5026 61.764 74.5046 60.948 75.2486 60.06C76.0046 59.16 76.5446 58.17 76.8686 57.09C77.1926 55.998 77.3546 54.786 77.3546 53.454V52.968ZM73.0706 52.968H78.0566V54.876H73.0706V52.968ZM80.7386 51.348H82.9886V66.864H80.7386V51.348ZM101.095 57.216H104.029V59.196H101.095V57.216ZM99.2952 50.898H101.707V67.566H99.2952V50.898ZM89.1612 52.5H91.5372V62.868H89.1612V52.5ZM89.1612 61.518H90.5832C91.7712 61.518 93.0072 61.47 94.2912 61.374C95.5752 61.278 96.8892 61.098 98.2332 60.834L98.4852 62.778C97.0932 63.066 95.7372 63.264 94.4172 63.372C93.0972 63.468 91.8192 63.516 90.5832 63.516H89.1612V61.518ZM109.446 51.978H117.402V59.34H109.446V51.978ZM115.044 53.886H111.804V57.432H115.044V53.886ZM119.688 50.934H122.082V60.258H119.688V50.934ZM121.434 54.534H124.296V56.496H121.434V54.534ZM115.44 61.932H117.474V62.328C117.474 62.964 117.342 63.57 117.078 64.146C116.814 64.722 116.418 65.244 115.89 65.712C115.374 66.168 114.726 66.552 113.946 66.864C113.178 67.188 112.29 67.416 111.282 67.548L110.418 65.73C111.294 65.622 112.044 65.454 112.668 65.226C113.304 64.998 113.826 64.728 114.234 64.416C114.642 64.104 114.942 63.768 115.134 63.408C115.338 63.036 115.44 62.676 115.44 62.328V61.932ZM115.98 61.932H117.996V62.328C117.996 62.676 118.098 63.03 118.302 63.39C118.506 63.738 118.812 64.074 119.22 64.398C119.64 64.71 120.162 64.986 120.786 65.226C121.41 65.466 122.148 65.64 123 65.748L122.154 67.566C121.146 67.434 120.258 67.206 119.49 66.882C118.722 66.558 118.074 66.162 117.546 65.694C117.03 65.226 116.64 64.704 116.376 64.128C116.112 63.552 115.98 62.952 115.98 62.328V61.932ZM111.138 61.032H122.298V62.922H111.138V61.032ZM129.335 52.806H131.189V53.364C131.189 54.036 131.003 54.648 130.631 55.2C130.259 55.74 129.707 56.19 128.975 56.55C128.255 56.91 127.349 57.162 126.257 57.306L125.447 55.596C126.335 55.512 127.067 55.362 127.643 55.146C128.219 54.918 128.645 54.648 128.921 54.336C129.197 54.024 129.335 53.7 129.335 53.364V52.806ZM129.983 52.806H131.801V53.364C131.801 53.676 131.939 53.976 132.215 54.264C132.491 54.552 132.905 54.798 133.457 55.002C134.009 55.194 134.705 55.326 135.545 55.398L134.753 57.108C133.709 56.976 132.827 56.742 132.107 56.406C131.399 56.058 130.865 55.626 130.505 55.11C130.157 54.582 129.983 54 129.983 53.364V52.806ZM126.131 52.05H135.023V53.778H126.131V52.05ZM129.371 50.844H131.783V52.662H129.371V50.844ZM129.191 58.278H131.585V61.752H129.191V58.278ZM136.805 50.898H139.199V61.842H136.805V50.898ZM125.339 59.52L125.069 57.738C126.125 57.738 127.247 57.732 128.435 57.72C129.635 57.708 130.853 57.672 132.089 57.612C133.325 57.552 134.513 57.462 135.653 57.342L135.815 58.926C134.627 59.106 133.421 59.238 132.197 59.322C130.985 59.406 129.797 59.46 128.633 59.484C127.481 59.508 126.383 59.52 125.339 59.52ZM133.781 59.718H137.471V61.302H133.781V59.718ZM128.957 62.418H130.739V62.634C130.739 63.366 130.601 64.05 130.325 64.686C130.049 65.322 129.623 65.874 129.047 66.342C128.483 66.81 127.757 67.152 126.869 67.368L125.825 65.64C126.533 65.472 127.115 65.232 127.571 64.92C128.039 64.608 128.387 64.254 128.615 63.858C128.843 63.462 128.957 63.054 128.957 62.634V62.418ZM129.587 62.418H131.279V62.634C131.279 63.042 131.375 63.456 131.567 63.876C131.759 64.284 132.059 64.656 132.467 64.992C132.875 65.328 133.391 65.598 134.015 65.802L133.151 67.548C132.299 67.284 131.609 66.894 131.081 66.378C130.565 65.874 130.187 65.292 129.947 64.632C129.707 63.972 129.587 63.306 129.587 62.634V62.418ZM135.023 62.418H136.715V62.634C136.715 63.294 136.595 63.954 136.355 64.614C136.115 65.262 135.731 65.844 135.203 66.36C134.687 66.876 134.003 67.272 133.151 67.548L132.287 65.802C132.911 65.586 133.421 65.31 133.817 64.974C134.225 64.626 134.525 64.248 134.717 63.84C134.921 63.432 135.023 63.03 135.023 62.634V62.418ZM135.599 62.418H137.381V62.634C137.381 63.078 137.489 63.504 137.705 63.912C137.933 64.308 138.281 64.662 138.749 64.974C139.217 65.274 139.811 65.496 140.531 65.64L139.469 67.368C138.581 67.152 137.849 66.816 137.273 66.36C136.697 65.904 136.271 65.358 135.995 64.722C135.731 64.086 135.599 63.39 135.599 62.634V62.418ZM145.929 52.068C146.757 52.068 147.495 52.314 148.143 52.806C148.803 53.286 149.313 53.976 149.673 54.876C150.045 55.764 150.231 56.814 150.231 58.026C150.231 59.25 150.045 60.312 149.673 61.212C149.313 62.1 148.803 62.79 148.143 63.282C147.495 63.762 146.757 64.002 145.929 64.002C145.101 64.002 144.363 63.762 143.715 63.282C143.067 62.79 142.557 62.1 142.185 61.212C141.813 60.312 141.627 59.25 141.627 58.026C141.627 56.814 141.813 55.764 142.185 54.876C142.557 53.976 143.067 53.286 143.715 52.806C144.363 52.314 145.101 52.068 145.929 52.068ZM145.929 54.246C145.533 54.246 145.179 54.39 144.867 54.678C144.567 54.966 144.333 55.392 144.165 55.956C143.997 56.508 143.913 57.198 143.913 58.026C143.913 58.842 143.997 59.538 144.165 60.114C144.333 60.678 144.567 61.104 144.867 61.392C145.179 61.68 145.533 61.824 145.929 61.824C146.349 61.824 146.709 61.68 147.009 61.392C147.309 61.104 147.543 60.678 147.711 60.114C147.879 59.538 147.963 58.842 147.963 58.026C147.963 57.198 147.879 56.508 147.711 55.956C147.543 55.392 147.309 54.966 147.009 54.678C146.709 54.39 146.349 54.246 145.929 54.246ZM152.967 50.898H155.361V67.62H152.967V50.898ZM149.529 56.928H153.975V58.836H149.529V56.928ZM160.886 59.394H163.28V64.056H160.886V59.394ZM166.934 59.394H169.328V64.056H166.934V59.394ZM157.574 63.714H172.676V65.658H157.574V63.714ZM165.098 51.744C166.298 51.744 167.366 51.93 168.302 52.302C169.25 52.674 169.988 53.196 170.516 53.868C171.056 54.528 171.326 55.314 171.326 56.226C171.326 57.126 171.056 57.912 170.516 58.584C169.988 59.244 169.25 59.76 168.302 60.132C167.366 60.504 166.298 60.69 165.098 60.69C163.91 60.69 162.842 60.504 161.894 60.132C160.958 59.76 160.22 59.244 159.68 58.584C159.14 57.912 158.87 57.126 158.87 56.226C158.87 55.314 159.14 54.528 159.68 53.868C160.22 53.196 160.958 52.674 161.894 52.302C162.842 51.93 163.91 51.744 165.098 51.744ZM165.098 53.598C164.33 53.598 163.652 53.706 163.064 53.922C162.488 54.126 162.038 54.42 161.714 54.804C161.39 55.188 161.228 55.662 161.228 56.226C161.228 56.766 161.39 57.234 161.714 57.63C162.038 58.014 162.488 58.314 163.064 58.53C163.652 58.734 164.33 58.836 165.098 58.836C165.878 58.836 166.556 58.734 167.132 58.53C167.72 58.314 168.17 58.014 168.482 57.63C168.806 57.234 168.968 56.766 168.968 56.226C168.968 55.662 168.806 55.188 168.482 54.804C168.17 54.42 167.72 54.126 167.132 53.922C166.556 53.706 165.878 53.598 165.098 53.598ZM174.142 64.7783C174.142 64.4033 174.271 64.0898 174.529 63.8379C174.792 63.5859 175.141 63.46 175.575 63.46C176.008 63.46 176.354 63.5859 176.612 63.8379C176.875 64.0898 177.007 64.4033 177.007 64.7783C177.007 65.1533 176.875 65.4668 176.612 65.7188C176.354 65.9707 176.008 66.0967 175.575 66.0967C175.141 66.0967 174.792 65.9707 174.529 65.7188C174.271 65.4668 174.142 65.1533 174.142 64.7783Z" fill="#474747"/>
<path d="M118.318 97.383L111 86H129L121.682 97.383C120.895 98.6076 119.105 98.6076 118.318 97.383Z" fill="white"/>
</g>
<ellipse cx="118.852" cy="242.146" rx="75.7939" ry="65.175" fill="#272727"/>
<path d="M104.465 129.386C121.493 133.751 114.71 165.504 108.958 181.576C108.779 182.077 108.415 182.478 107.94 182.718L104.727 184.344C103.031 185.202 101.155 183.52 101.761 181.719C113.478 146.874 105.62 144.66 103.111 143.62C95.5163 140.475 89.5196 151.648 85.3925 153.352C81.2654 155.057 60.0614 162.206 58.0225 153.396C55.9836 144.586 82.8351 123.841 104.465 129.386Z" fill="#272727"/>
<path d="M137.966 129.814C120.547 132.185 123.61 164.508 127.464 181.136C127.584 181.654 127.899 182.094 128.343 182.388L131.347 184.374C132.932 185.422 134.989 183.968 134.596 182.109C126.99 146.145 135.051 144.852 137.664 144.109C145.571 141.861 150.235 153.651 154.137 155.82C158.039 157.99 178.274 167.537 181.319 159.022C184.363 150.506 160.092 126.802 137.966 129.814Z" fill="#272727"/>
<circle cx="97.7985" cy="237.94" r="5.2605" fill="white" stroke="white" stroke-width="2.10242"/>
<circle cx="97.7985" cy="246.35" r="6.31171" fill="#272727"/>
<circle cx="135.695" cy="237.94" r="5.2605" fill="white" stroke="white" stroke-width="2.10242"/>
<rect x="103.063" y="217.006" width="10.5299" height="3.24389" rx="1.62195" transform="rotate(-180 103.063 217.006)" fill="#D5D5D5" stroke="#D5D5D5" stroke-width="2.10242"/>
<rect x="140.96" y="217.006" width="10.5299" height="3.24389" rx="1.62195" transform="rotate(-180 140.96 217.006)" fill="#D5D5D5" stroke="#D5D5D5" stroke-width="2.10242"/>
<rect x="-1.08443" y="0.482168" width="6.20746" height="1.67759" rx="0.838793" transform="matrix(-0.359278 0.933231 -0.93357 -0.358396 83.7905 249.221)" stroke="#FF5959" stroke-width="1.67759"/>
<rect x="-1.08443" y="0.482168" width="6.20746" height="1.67759" rx="0.838793" transform="matrix(-0.359278 0.933231 -0.93357 -0.358396 146.952 245.015)" stroke="#FF5959" stroke-width="1.67759"/>
<rect x="-1.08443" y="0.482168" width="6.20746" height="1.67759" rx="0.838793" transform="matrix(-0.359278 0.933231 -0.93357 -0.358396 90.1065 249.221)" stroke="#FF5959" stroke-width="1.67759"/>
<rect x="-1.08443" y="0.482168" width="6.20746" height="1.67759" rx="0.838793" transform="matrix(-0.359278 0.933231 -0.93357 -0.358396 153.268 245.015)" stroke="#FF5959" stroke-width="1.67759"/>
<path d="M40.8087 197.103C42.394 196.852 43.3955 198.751 42.2934 199.918L32.3357 210.459C32.0058 210.808 31.8409 211.281 31.8826 211.76L33.0481 225.119C33.1847 226.684 31.2887 227.566 30.1795 226.453L20.7041 216.943C20.3658 216.604 19.8986 216.425 19.4198 216.451L4.9254 217.252C3.32282 217.341 2.5194 215.35 3.73444 214.301L14.0826 205.369C14.5076 205.002 14.7216 204.448 14.6533 203.891L12.8614 189.276C12.6629 187.658 14.6546 186.731 15.7645 187.926L25.7975 198.723C26.1786 199.133 26.7391 199.327 27.2924 199.24L40.8087 197.103Z" fill="#FFBC02"/>
<path d="M225.484 229.751C226.99 230.309 226.933 232.454 225.401 232.932L220.445 234.475C219.986 234.618 219.611 234.95 219.413 235.386L217.456 239.702C216.806 241.133 214.721 240.971 214.301 239.457L213.032 234.893C212.904 234.431 212.584 234.046 212.153 233.834L207.494 231.547C206.054 230.84 206.328 228.711 207.901 228.392L212.485 227.461C213.034 227.349 213.492 226.972 213.706 226.454L215.657 221.717C216.278 220.21 218.469 220.38 218.85 221.965L220.048 226.944C220.179 227.489 220.574 227.933 221.1 228.127L225.484 229.751Z" fill="#FF3A3A"/>
<path d="M22.775 256.209C24.3603 255.959 25.3618 257.857 24.2597 259.024L22.6189 260.761C22.2889 261.11 22.124 261.584 22.1658 262.062L22.351 264.185C22.4876 265.751 20.5916 266.633 19.4824 265.519L17.9733 264.005C17.6351 263.665 17.1679 263.486 16.689 263.513L14.2967 263.645C12.6941 263.734 11.8907 261.743 13.1057 260.694L14.5975 259.406C15.0224 259.04 15.2365 258.485 15.1682 257.929L14.896 255.709C14.6976 254.091 16.6892 253.164 17.7992 254.359L19.3263 256.002C19.7074 256.412 20.2678 256.606 20.8212 256.518L22.775 256.209Z" fill="#448FFF"/>
<path d="M235.374 257.547C236.879 258.105 236.823 260.25 235.29 260.728L233.005 261.44C232.546 261.582 232.171 261.914 231.973 262.35L231.091 264.295C230.442 265.726 228.357 265.564 227.936 264.05L227.365 261.994C227.236 261.532 226.916 261.147 226.485 260.935L224.337 259.881C222.897 259.174 223.171 257.045 224.744 256.726L226.68 256.332C227.23 256.221 227.687 255.843 227.901 255.325L228.754 253.254C229.375 251.747 231.566 251.917 231.947 253.502L232.471 255.678C232.602 256.223 232.996 256.667 233.522 256.862L235.374 257.547Z" fill="#FFBC02"/>
<circle cx="135.695" cy="246.35" r="6.31171" fill="#272727"/>
<path d="M123.065 246.35H112.533C111.371 246.35 110.422 247.291 110.445 248.452C110.546 253.582 111.354 260.015 117.799 260.015C124.155 260.015 125.029 253.237 125.149 248.45C125.178 247.289 124.227 246.35 123.065 246.35Z" fill="#FF5959"/>
<mask id="mask0_552_5928" style="mask-type:alpha" maskUnits="userSpaceOnUse" x="110" y="246" width="16" height="15">
<path d="M123.065 246.35H112.533C111.371 246.35 110.422 247.291 110.445 248.452C110.546 253.582 111.354 260.015 117.799 260.015C124.155 260.015 125.029 253.237 125.149 248.45C125.178 247.289 124.227 246.35 123.065 246.35Z" fill="#FF5959"/>
</mask>
<g mask="url(#mask0_552_5928)">
<path d="M123.065 235.838H112.533C111.371 235.838 110.422 236.779 110.445 237.94C110.546 243.07 111.354 249.504 117.799 249.504C124.155 249.504 125.029 242.725 125.149 237.938C125.178 236.778 124.227 235.838 123.065 235.838Z" fill="white"/>
</g>
<path d="M43.0597 317.832C35.8388 290.921 53.0341 285.595 63.0607 285.245L80.9564 297.859C87.2726 301.013 96.0756 305.385 90.4308 287.347C85.1673 270.527 89.3779 262.468 96.7468 260.015C98.8523 260.015 104.537 257.913 110.432 270.527C117.801 286.296 99.9049 349.554 80.9564 354.624C62.0079 359.694 52.0859 351.471 43.0597 317.832Z" fill="#171717"/>
<path d="M196.342 316.912C203.563 290.001 186.368 284.675 176.341 284.325L158.446 296.939C152.13 300.093 143.327 304.465 148.971 286.427C154.235 269.608 150.024 261.548 142.655 259.095C140.55 259.095 134.865 256.993 128.97 269.608C121.601 285.376 139.497 348.634 158.446 353.704C177.394 358.774 187.316 350.551 196.342 316.912Z" fill="#171717"/>
<defs>
<filter id="filter0_d_552_5928" x="25.5" y="0" width="189" height="112" filterUnits="userSpaceOnUse" color-interpolation-filters="sRGB">
<feFlood flood-opacity="0" result="BackgroundImageFix"/>
<feColorMatrix in="SourceAlpha" type="matrix" values="0 0 0 0 0 0 0 0 0 0 0 0 0 0 0 0 0 0 127 0" result="hardAlpha"/>
<feOffset/>
<feGaussianBlur stdDeviation="6"/>
<feComposite in2="hardAlpha" operator="out"/>
<feColorMatrix type="matrix" values="0 0 0 0 0 0 0 0 0 0 0 0 0 0 0 0 0 0 0.08 0"/>
<feBlend mode="normal" in2="BackgroundImageFix" result="effect1_dropShadow_552_5928"/>
<feBlend mode="normal" in="SourceGraphic" in2="effect1_dropShadow_552_5928" result="shape"/>
</filter>
</defs>
</svg>
