<svg width="68" height="68" viewBox="0 0 68 68" fill="none" xmlns="http://www.w3.org/2000/svg">
<rect width="68" height="68" rx="34" fill="#DDEBFF"/>
<path d="M34.0005 21.0098C36.0228 21.0098 37.6706 21.4835 38.9712 22.3623C40.2695 23.2397 41.1037 24.4418 41.6362 25.6992C42.325 27.3258 42.5419 29.1457 42.6118 30.6885H43.1694C44.2947 30.6886 45.2065 31.6013 45.2065 32.7266V44.9521C45.2064 46.0773 44.2946 46.9891 43.1694 46.9893H24.8306C23.7055 46.989 22.7936 46.0772 22.7935 44.9521V32.7266C22.7935 31.6014 23.7054 30.6887 24.8306 30.6885H25.3745C25.4492 28.8902 25.6903 26.9337 26.4702 25.2656C27.0376 24.0524 27.9018 22.9547 29.1948 22.1758C30.4784 21.4027 32.0744 21.0098 34.0005 21.0098ZM34.0005 24.0664C32.4872 24.0664 31.4704 24.3733 30.772 24.7939C30.0832 25.2088 29.5943 25.8002 29.2388 26.5605C28.7068 27.6984 28.5099 29.126 28.438 30.6885H39.5503C39.4848 29.3833 39.3083 28.0396 38.8218 26.8906C38.4645 26.0472 37.9637 25.37 37.2603 24.8945C36.5589 24.4206 35.5369 24.0665 34.0005 24.0664Z" fill="#BAD1F3"/>
</svg>
