<svg width="16" height="16" viewBox="0 0 16 16" fill="none" xmlns="http://www.w3.org/2000/svg">
<path d="M10.9997 5.44033H4.99967C4.72353 5.44033 4.49967 5.66418 4.49967 5.94033C4.49967 6.21647 4.72353 6.44033 4.99967 6.44033H10.9997C11.2758 6.44033 11.4997 6.21647 11.4997 5.94033C11.4997 5.66418 11.2758 5.44033 10.9997 5.44033Z" fill="#9B9B9B"/>
<path fill-rule="evenodd" clip-rule="evenodd" d="M11.2597 2.38033H11.333C13.174 2.38033 14.6663 3.87271 14.6663 5.71366V11.7137C14.6663 13.5546 13.174 15.047 11.333 15.047H4.66634C3.78229 15.047 2.93444 14.6958 2.30932 14.0707C1.6842 13.4456 1.33301 12.5977 1.33301 11.7137V5.71366C1.33301 3.87271 2.82539 2.38033 4.66634 2.38033H4.72634V1.16699C4.72634 0.89085 4.9502 0.666992 5.22634 0.666992C5.50248 0.666992 5.72634 0.89085 5.72634 1.16699V2.38033H10.2597V1.16699C10.2597 0.89085 10.4835 0.666992 10.7597 0.666992C11.0358 0.666992 11.2597 0.89085 11.2597 1.16699V2.38033ZM11.333 14.047C12.6217 14.047 13.6663 13.0023 13.6663 11.7137V5.71366C13.6663 4.42499 12.6217 3.38033 11.333 3.38033H4.66634C3.37768 3.38033 2.33301 4.42499 2.33301 5.71366V11.7137C2.33301 13.0023 3.37768 14.047 4.66634 14.047H11.333Z" fill="#9B9B9B"/>
</svg>
