<svg width="92" height="140" viewBox="0 0 92 140" fill="none" xmlns="http://www.w3.org/2000/svg">
<ellipse cx="36.4211" cy="119" rx="36.4211" ry="7" fill="#DFDFDF"/>
<path d="M66.9359 83.2505C69.6763 90.803 78.6399 96.6963 82.7791 98.6989C82.7791 99.7002 80.8951 102.046 73.3588 103.419C65.8226 104.792 54.2328 83.1074 49.3799 72.0933L55.3746 66.5146C58.0865 68.9463 64.1954 75.6979 66.9359 83.2505Z" fill="#090909"/>
<path d="M25.401 118.867C29.5117 129.166 45.3835 136.032 52.8055 138.178L55.3747 134.316C46.1257 135.346 34.1076 123.015 29.2548 116.722L25.401 118.867Z" fill="#090909"/>
<path d="M53.6621 108.568C57.7728 118.867 73.6446 125.733 81.0666 127.879L83.6358 124.017C74.3868 125.047 62.3688 112.717 57.5159 106.423L53.6621 108.568Z" fill="#090909"/>
<path d="M19.2811 120.457C-7.73962 109.488 7.10357 80.7788 17.947 67.734C17.9808 67.6934 18.0152 67.6589 18.056 67.6253C24.6612 62.1917 41.0736 54.4077 54.3932 66.3871C67.7196 78.3726 66.8154 98.4708 64.6858 107.089C64.6749 107.134 64.6616 107.173 64.6435 107.215C60.7505 116.234 46.2818 131.417 19.2811 120.457Z" fill="#272727"/>
<path d="M83.2301 84.7404C79.8829 86.4589 71.6627 90.6943 65.3598 94.0648L64.2027 118.936C67.4731 118.972 76.914 113.352 79.4794 111.787C79.8982 111.531 80.1761 111.109 80.2575 110.626L84.4638 85.6468C84.5809 84.9509 83.8578 84.4181 83.2301 84.7404Z" fill="#FFAA00"/>
<path d="M42.841 86.7757L64.4887 92.7614L60.3442 119.323L39.7366 114.957C39.3077 114.866 39.0162 114.466 39.0606 114.03L41.7585 87.5159C41.8123 86.9872 42.3288 86.634 42.841 86.7757Z" fill="#FFAA00"/>
<path d="M64.2025 118.937L67.9141 92.7997L64.4888 92.7621L60.3443 119.324L64.2025 118.937Z" fill="#FF8400"/>
<path d="M21.7689 102.16C-0.154729 90.8316 9.3513 74.6966 17.487 66.5433C18.3435 66.1141 24.1597 62.7971 23.9098 68.6888C23.8029 71.2093 19.2847 79.3527 18.7715 82.8499C16.6306 97.4401 35.0429 102.16 38.8967 102.16C42.7504 102.16 46.6042 97.4401 51.3144 98.2983C56.0245 99.1566 55.5963 107.31 44.8914 108.168C36.3275 108.855 25.9081 104.449 21.7689 102.16Z" fill="#090909"/>
<ellipse cx="37.7772" cy="46.3459" rx="30.8301" ry="26.6056" fill="#272727"/>
<path d="M17.3913 7.1811C10.4648 8.9631 13.2239 21.9259 15.5637 28.4865C15.6366 28.6908 15.7843 28.8542 15.9775 28.9523L17.2776 29.6126C17.9691 29.9637 18.736 29.2755 18.4894 28.5394C13.7259 14.3199 16.9215 13.4162 17.942 12.992C21.0312 11.7079 23.4704 16.2688 25.1491 16.9647C26.8279 17.6606 35.4529 20.579 36.2822 16.9826C37.1116 13.3862 26.1894 4.91759 17.3913 7.1811Z" fill="#272727"/>
<path d="M48.5905 3.92242C41.5049 4.89046 42.7511 18.0861 44.3189 24.8736C44.3677 25.085 44.4955 25.2642 44.6762 25.3841L45.8911 26.1902C46.5375 26.6191 47.3789 26.0243 47.2188 25.2647C44.1267 10.589 47.405 10.0614 48.4677 9.75814C51.6842 8.84034 53.5812 13.6532 55.1685 14.5388C56.7557 15.4244 64.9865 19.322 66.2249 15.8457C67.4633 12.3694 57.5907 2.69282 48.5905 3.92242Z" fill="#272727"/>
<circle cx="37.5739" cy="56.2927" r="2.14283" fill="white" stroke="white" stroke-width="0.858247"/>
<circle cx="51.949" cy="53.2116" r="2.14283" fill="white" stroke="white" stroke-width="0.858247"/>
<rect x="-0.586779" y="-0.152604" width="4.28296" height="1.32301" rx="0.661505" transform="matrix(-0.861841 0.507179 -0.505549 -0.862798 36.6161 49.0983)" fill="#D5D5D5" stroke="#D5D5D5" stroke-width="0.858247"/>
<rect x="-0.352544" y="-0.494232" width="4.2804" height="1.32409" rx="0.662045" transform="matrix(-0.98623 -0.165379 0.164685 -0.986346 53.8296 46.5908)" fill="#D5D5D5" stroke="#D5D5D5" stroke-width="0.858247"/>
<rect x="-0.440781" y="0.195983" width="2.53465" height="0.682693" rx="0.341346" transform="matrix(-0.35816 0.93366 -0.93314 -0.359513 29.9807 62.1047)" stroke="#FF5959" stroke-width="0.682693"/>
<rect x="-0.440781" y="0.195983" width="2.53465" height="0.682693" rx="0.341346" transform="matrix(-0.35816 0.93366 -0.93314 -0.359513 57.3853 56.9553)" stroke="#FF5959" stroke-width="0.682693"/>
<rect x="-0.440781" y="0.195983" width="2.53465" height="0.682693" rx="0.341346" transform="matrix(-0.35816 0.93366 -0.93314 -0.359513 32.5499 62.1047)" stroke="#FF5959" stroke-width="0.682693"/>
<rect x="-0.440781" y="0.195983" width="2.53465" height="0.682693" rx="0.341346" transform="matrix(-0.35816 0.93366 -0.93314 -0.359513 59.9543 56.9553)" stroke="#FF5959" stroke-width="0.682693"/>
<path d="M43.385 58.7903C43.5277 60.0777 44.7951 61.3399 46.8106 60.9359C48.6316 60.5709 49.0943 59.0764 48.9516 57.5029" stroke="white" stroke-width="0.858247" stroke-linecap="round"/>
<path d="M78.657 116.623C80.9054 110.129 86.2062 110.096 87.9189 110.524C90.3487 111.132 89.4808 118.413 87.2996 123.824C85.1185 129.236 80.9237 128.185 79.099 126.984C78.0148 126.237 76.4086 123.118 78.657 116.623Z" fill="#090909"/>
<path d="M49.078 128.186C50.3631 121.433 55.6033 120.631 57.3598 120.806C59.8519 121.055 60.0464 128.384 58.6711 134.055C57.2958 139.726 52.9934 139.297 51.0141 138.373C49.8332 137.791 47.7929 134.939 49.078 128.186Z" fill="#090909"/>
<path d="M78.9257 99.5564C77.2129 93.377 81.0667 93.8348 83.2077 94.8361C86.6332 96.5524 85.7769 100.415 84.9206 102.131C83.636 103.848 80.6385 105.736 78.9257 99.5564Z" fill="#090909"/>
</svg>
