<svg width="32" height="32" viewBox="0 0 32 32" fill="none" xmlns="http://www.w3.org/2000/svg">
<circle cx="16" cy="16" r="16" fill="#DDE4F0"/>
<path d="M20.5468 26H11.2668C10.256 25.9633 9.3144 25.477 8.69918 24.6742C8.08396 23.8713 7.8594 22.8356 8.08683 21.85L8.32683 20.71C8.60287 19.1668 9.92945 18.0327 11.4968 18H20.3168C21.8842 18.0327 23.2108 19.1668 23.4868 20.71L23.7268 21.85C23.9543 22.8356 23.7297 23.8713 23.1145 24.6742C22.4993 25.477 21.5577 25.9633 20.5468 26Z" fill="#B9C2D2"/>
<path d="M16.4068 16H15.4068C13.1977 16 11.4068 14.2092 11.4068 12V9.36001C11.4042 8.46807 11.7573 7.61189 12.388 6.98119C13.0187 6.35049 13.8749 5.99735 14.7668 6.00001H17.0468C17.9388 5.99735 18.795 6.35049 19.4257 6.98119C20.0564 7.61189 20.4095 8.46807 20.4068 9.36001V12C20.4068 13.0609 19.9854 14.0783 19.2353 14.8284C18.4851 15.5786 17.4677 16 16.4068 16Z" fill="#B9C2D2"/>
</svg>
