<svg width="404" height="238" viewBox="0 0 404 238" fill="none" xmlns="http://www.w3.org/2000/svg">
<g filter="url(#filter0_d_489_4911)">
<rect x="12" y="12" width="380" height="214" rx="12" fill="#FFE478" shape-rendering="crispEdges"/>
<path d="M28.3811 46.76H46.3811V28.76H28.3811V46.76ZM58.8915 32.126V33.962H50.8275V32.126H53.6895V30.614H56.0295V32.126H58.8915ZM53.4195 37.472C53.4195 38.282 54.0135 38.714 54.8955 38.714C55.7595 38.714 56.3535 38.282 56.3535 37.472C56.3535 36.662 55.7595 36.23 54.8955 36.23C54.0135 36.23 53.4195 36.662 53.4195 37.472ZM58.4595 37.472C58.4595 39.218 56.9835 40.442 54.8955 40.442C52.7895 40.442 51.3135 39.218 51.3135 37.472C51.3135 35.726 52.7895 34.502 54.8955 34.502C56.9835 34.502 58.4595 35.726 58.4595 37.472ZM53.6355 43.502V41.612H65.0475V47.066H62.6715V43.502H53.6355ZM62.7975 30.452H65.0475V40.838H62.7975V36.77H61.5735V40.766H59.3595V30.74H61.5735V34.862H62.7975V30.452ZM77.2681 37.4L76.1341 39.254C74.2621 38.696 72.9841 37.562 72.2461 36.104C71.4901 37.688 70.1401 38.948 68.1961 39.56L67.0441 37.688C69.8161 36.824 71.0041 34.718 71.0041 32.684V31.082H73.4161V32.684C73.4161 34.682 74.5861 36.626 77.2681 37.4ZM72.1921 42.458V44.996H78.5641V42.458H72.1921ZM69.8521 46.85V40.604H80.8861V46.85H69.8521ZM78.4921 30.47H80.8861V39.83H78.4921V30.47ZM93.2151 33.728V38.426H96.5991V33.728H93.2151ZM96.0951 43.268H102.449V45.176H87.4371V43.268H93.7191V40.316H88.6971V38.426H90.8571V33.728H88.6071V31.838H101.207V33.728H98.9571V38.426H101.153V40.316H96.0951V43.268ZM117.406 30.488V42.386H115.012V30.488H117.406ZM106.192 35.744C106.192 37.076 107.164 37.886 108.388 37.886C109.63 37.886 110.566 37.076 110.566 35.744C110.566 34.376 109.63 33.584 108.388 33.584C107.164 33.584 106.192 34.376 106.192 35.744ZM112.888 35.744C112.888 38.156 110.926 39.938 108.388 39.938C105.85 39.938 103.87 38.156 103.87 35.744C103.87 33.296 105.85 31.532 108.388 31.532C110.926 31.532 112.888 33.296 112.888 35.744ZM108.748 44.87H117.82V46.76H106.372V41.216H108.748V44.87ZM133.244 39.02V40.892H121.598V31.676H133.118V33.584H124.01V35.33H132.74V37.166H124.01V39.02H133.244ZM119.834 43.214H134.846V45.14H119.834V43.214Z" fill="black"/>
<path d="M28 79.98H42V65.98H28V79.98ZM50.8627 74.128H51.9827V71.636H50.8487C50.9047 72.028 50.9327 72.448 50.9327 72.896C50.9327 73.33 50.9047 73.75 50.8627 74.128ZM48.1467 75.85C48.8607 75.85 49.2807 74.87 49.2807 72.896C49.2807 70.922 48.8607 69.956 48.1467 69.956C47.4187 69.956 46.9987 70.922 46.9987 72.896C46.9987 74.87 47.4187 75.85 48.1467 75.85ZM51.9827 70.152V67.52H53.7047V79.616H51.9827V75.626H50.5127C50.0367 76.872 49.2107 77.586 48.1467 77.586C46.4247 77.586 45.3467 75.822 45.3467 72.896C45.3467 69.984 46.4247 68.22 48.1467 68.22C49.1967 68.22 50.0227 68.906 50.4987 70.152H51.9827ZM54.5447 67.296H56.2947V80.19H54.5447V67.296ZM60.7456 76.788V78.608H65.9956V76.788H60.7456ZM58.9256 80.05V75.346H67.8016V80.05H58.9256ZM67.5636 72.532H69.2296V74.002H57.5536V72.532H65.7296C65.9956 71.244 66.0376 70.25 66.0376 69.354H58.9956V67.884H67.8576V68.92C67.8576 69.956 67.8576 71.048 67.5636 72.532ZM35.0615 88.3008V89.8594H28.9297V88.3008H35.0615ZM35.0615 91.2539V92.8125H28.9297V91.2539H35.0615ZM40.5337 92.998V92.074H49.2277V96.05H48.0797V92.998H40.5337ZM41.8497 84.906V87.342H48.0377V84.906H41.8497ZM45.5317 89.848H50.6277V90.772H39.2597V89.848H44.3837V88.252H40.7297V83.996H49.1717V88.252H45.5317V89.848ZM54.3366 92.144V94.818H61.8966V95.756H53.1886V92.144H54.3366ZM57.9906 90.086H63.1006V91.01H51.7326V90.086H56.8426V88.448H53.1606V84.122H61.6866V85.046H54.3086V87.51H61.7986V88.448H57.9906V90.086ZM69.8615 84.556C67.8035 84.556 66.6275 85.032 66.6275 85.872C66.6275 86.712 67.8035 87.188 69.8615 87.188C71.9195 87.188 73.0955 86.712 73.0955 85.872C73.0955 85.032 71.9195 84.556 69.8615 84.556ZM69.8615 88.042C67.1035 88.042 65.4515 87.286 65.4515 85.872C65.4515 84.458 67.1035 83.688 69.8615 83.688C72.6195 83.688 74.2715 84.458 74.2715 85.872C74.2715 87.286 72.6195 88.042 69.8615 88.042ZM66.7115 93.726V95H74.4675V95.896H65.5915V92.886H72.9555V91.766H65.5495V90.898H74.0895V93.726H66.7115ZM64.1775 88.896H75.5455V89.82H64.1775V88.896ZM87.1511 85.018V85.942H79.7451V85.018H82.8671V83.478H84.0151V85.018H87.1511ZM81.5371 88.966C81.5371 89.848 82.3071 90.408 83.4411 90.408C84.5751 90.408 85.3591 89.848 85.3591 88.966C85.3591 88.098 84.5751 87.538 83.4411 87.538C82.3071 87.538 81.5371 88.098 81.5371 88.966ZM86.4511 88.966C86.4511 90.38 85.2191 91.304 83.4411 91.304C81.6631 91.304 80.4451 90.38 80.4451 88.966C80.4451 87.566 81.6631 86.642 83.4411 86.642C85.2191 86.642 86.4511 87.566 86.4511 88.966ZM82.7831 92.158V94.818H90.0071V95.756H81.6351V92.158H82.7831ZM89.4471 87.622H91.2951V88.588H89.4471V92.9H88.2991V83.478H89.4471V87.622ZM100.367 89.708V87.44H96.9787V89.708H100.367ZM101.501 87.958V90.632H95.8447V84.318H96.9787V86.53H100.367V84.318H101.501V87.02H104.399V83.478H105.561V92.774H104.399V87.958H101.501ZM98.6307 94.818H105.855V95.756H97.4827V91.864H98.6307V94.818ZM110.516 92.214C111.496 92.214 112.14 90.94 112.14 88.882C112.14 86.866 111.496 85.592 110.516 85.592C109.508 85.592 108.878 86.866 108.878 88.882C108.878 90.94 109.508 92.214 110.516 92.214ZM114.758 88.364V83.758H115.85V95.42H114.758V89.302H113.176C113.078 91.766 112.056 93.278 110.516 93.278C108.878 93.278 107.828 91.598 107.828 88.882C107.828 86.208 108.878 84.528 110.516 84.528C112.028 84.528 113.036 85.998 113.176 88.364H114.758ZM117.25 83.478H118.342V96.036H117.25V83.478ZM132.369 90.184V86.32H128.785V85.396H132.369V83.478H133.531V90.184H132.369ZM130.451 87.678L130.591 88.63C128.645 89.008 126.937 89.12 124.865 89.12H123.899V84.08H125.061V88.154C126.993 88.154 128.617 88.042 130.451 87.678ZM129.387 95.182C130.857 95.182 131.753 94.804 131.753 94.16C131.753 93.516 130.857 93.152 129.387 93.152C127.903 93.152 127.021 93.516 127.021 94.16C127.021 94.804 127.903 95.182 129.387 95.182ZM129.387 92.312C131.557 92.312 132.887 92.984 132.887 94.16C132.887 95.35 131.557 96.022 129.387 96.022C127.203 96.022 125.887 95.35 125.887 94.16C125.887 92.984 127.203 92.312 129.387 92.312ZM129.961 90.884H133.811V91.78H124.949V90.884H128.813V89.638H129.961V90.884ZM144.506 85.984V85.676H136.848V84.738H145.654V85.984C145.654 87.538 145.654 89.26 145.178 91.794L144.03 91.668C144.506 89.26 144.506 87.496 144.506 85.984ZM141.216 93.334H147.012V94.272H135.658V93.334H140.068V88.84H141.216V93.334ZM149.473 93.4961V94.5146C149.473 94.9294 149.368 95.3669 149.159 95.8271C148.949 96.292 148.655 96.6794 148.277 96.9893L147.559 96.4902C147.705 96.2897 147.828 96.0846 147.928 95.875C148.029 95.6699 148.104 95.4557 148.154 95.2324C148.209 95.0137 148.236 94.7812 148.236 94.5352V93.4961H149.473ZM160.161 86.95H162.681V83.492H163.843V92.69H162.681V87.888H160.161V86.95ZM160.903 89.904L160.329 90.8C158.929 90.296 157.851 89.246 157.305 87.958C156.759 89.386 155.611 90.548 154.141 91.08L153.539 90.184C155.401 89.512 156.703 87.846 156.703 86.068V85.438H153.903V84.5H160.609V85.438H157.851V86.054C157.851 87.692 159.083 89.26 160.903 89.904ZM156.969 94.818H164.193V95.756H155.807V91.878H156.969V94.818ZM167.118 87.23C167.118 88.392 167.888 89.232 168.938 89.232C169.974 89.232 170.744 88.392 170.744 87.23C170.744 86.068 169.974 85.228 168.938 85.228C167.888 85.228 167.118 86.068 167.118 87.23ZM171.794 87.23C171.794 88.98 170.576 90.184 168.938 90.184C167.286 90.184 166.082 88.98 166.082 87.23C166.082 85.466 167.286 84.262 168.938 84.262C170.576 84.262 171.794 85.466 171.794 87.23ZM168.112 92.592V91.668H176.554V96.05H175.406V92.592H168.112ZM175.448 83.478H176.554V90.954H175.448V87.65H173.852V90.884H172.774V83.716H173.852V86.712H175.448V83.478ZM181.257 92.214C182.237 92.214 182.881 90.94 182.881 88.882C182.881 86.866 182.237 85.592 181.257 85.592C180.249 85.592 179.619 86.866 179.619 88.882C179.619 90.94 180.249 92.214 181.257 92.214ZM185.499 88.364V83.758H186.591V95.42H185.499V89.302H183.917C183.819 91.766 182.797 93.278 181.257 93.278C179.619 93.278 178.569 91.598 178.569 88.882C178.569 86.208 179.619 84.528 181.257 84.528C182.769 84.528 183.777 85.998 183.917 88.364H185.499ZM187.991 83.478H189.083V96.036H187.991V83.478ZM203.055 83.478H204.203V96.064H203.055V83.478ZM197.581 84.444C199.443 84.444 200.773 86.152 200.773 88.826C200.773 91.5 199.443 93.208 197.581 93.208C195.719 93.208 194.389 91.5 194.389 88.826C194.389 86.152 195.719 84.444 197.581 84.444ZM197.581 85.48C196.349 85.48 195.481 86.796 195.481 88.826C195.481 90.87 196.349 92.186 197.581 92.186C198.799 92.186 199.667 90.87 199.667 88.826C199.667 86.796 198.799 85.48 197.581 85.48ZM210.614 85.718V87.314C210.614 89.316 212.042 91.542 213.862 92.396L213.204 93.32C211.804 92.62 210.628 91.15 210.054 89.47C209.48 91.304 208.262 92.9 206.848 93.628L206.176 92.718C207.968 91.822 209.48 89.442 209.48 87.314V85.718H206.61V84.766H213.4V85.718H210.614ZM218.118 88.546V89.512H216.046V96.036H214.898V83.492H216.046V88.546H218.118ZM219.516 84.822H225.256C225.256 88.392 223.618 91.626 219.558 93.656L218.928 92.76C222.134 91.15 223.856 88.742 224.122 85.774H219.516V84.822ZM230.52 88.574V89.526H228.504V96.036H227.356V83.478H228.504V88.574H230.52ZM243.092 87.034V85.802H236.988V87.034H243.092ZM244.226 83.716V87.916H235.854V83.716H236.988V84.934H243.092V83.716H244.226ZM245.71 89.918H240.6V91.206H244.38V92.06H236.918V93.096H244.072V93.936H236.918V95.042H244.506V95.896H235.77V91.206H239.452V89.918H234.342V88.994H245.71V89.918ZM256.881 87.258V88.196H248.341V83.94H249.489V87.258H256.881ZM249.405 92.06V94.79H256.951V95.728H248.257V92.06H249.405ZM246.801 89.876H258.183V90.8H246.801V89.876ZM273.695 89.694V90.632H268.571V96.05H267.409V90.632H262.341V89.694H270.671C271.063 87.888 271.063 86.558 271.063 85.382V85.214H263.755V84.29H272.183V85.382C272.183 86.558 272.183 87.888 271.833 89.694H273.695ZM275.821 90.884L275.331 89.946C277.501 89.582 279.881 87.832 279.881 85.83V85.564H275.723V84.626H285.229V85.564H281.071V85.83C281.071 87.832 283.465 89.554 285.649 89.904L285.187 90.828C283.269 90.45 281.281 89.218 280.483 87.496C279.685 89.232 277.711 90.478 275.821 90.884ZM281.057 93.474H286.181V94.426H274.785V93.474H279.909V90.436H281.057V93.474ZM28 127.98H42V113.98H28V127.98ZM53.0047 121.19L52.1087 122.632C50.6947 122.17 49.7287 121.246 49.1827 120.098C48.6087 121.358 47.6007 122.394 46.1027 122.884L45.1647 121.428C47.2367 120.728 48.1747 119.09 48.2027 117.494H45.6687V116.024H52.5987V117.494H50.0927C50.1207 118.964 51.0167 120.518 53.0047 121.19ZM47.2227 125.026V123.556H56.0147V128.218H54.1667V125.026H47.2227ZM54.1667 115.324H56.0147V122.982H54.1667V119.874H52.2627V118.39H54.1667V115.324ZM60.7456 124.788V126.608H65.9956V124.788H60.7456ZM58.9256 128.05V123.346H67.8016V128.05H58.9256ZM67.5636 120.532H69.2296V122.002H57.5536V120.532H65.7296C65.9956 119.244 66.0376 118.25 66.0376 117.354H58.9956V115.884H67.8576V116.92C67.8576 117.956 67.8576 119.048 67.5636 120.532ZM35.0615 136.301V137.859H28.9297V136.301H35.0615ZM35.0615 139.254V140.812H28.9297V139.254H35.0615ZM40.6734 133.844V139.752H43.3054V133.844H40.6734ZM39.5954 140.662V132.934H44.3694V140.662H39.5954ZM48.7234 131.478H49.8154V144.022H48.7234V137.386H47.0294V143.406H45.9514V131.758H47.0294V136.448H48.7234V131.478ZM58.8723 135.972L59.0123 136.882C57.2483 137.246 55.7223 137.33 53.1323 137.33H52.1663V132.206H57.7103V133.13H53.3003V136.406C55.7363 136.406 57.1923 136.308 58.8723 135.972ZM54.5323 141.53V142.944H61.8123V143.868H53.4123V140.662H60.2163V139.346H53.3703V138.436H61.3503V141.53H54.5323ZM61.3503 134.124H63.2123V135.062H61.3503V137.792H60.2023V131.478H61.3503V134.124ZM77.4219 131.478V137.918H76.2739V131.478H77.4219ZM68.5179 134.726C68.5179 135.804 69.4279 136.574 70.6459 136.574C71.8779 136.574 72.7739 135.804 72.7739 134.726C72.7739 133.634 71.8779 132.864 70.6459 132.864C69.4279 132.864 68.5179 133.634 68.5179 134.726ZM73.8939 134.726C73.8939 136.378 72.5219 137.498 70.6459 137.498C68.7699 137.498 67.4119 136.378 67.4119 134.726C67.4119 133.06 68.7699 131.926 70.6459 131.926C72.5219 131.926 73.8939 133.06 73.8939 134.726ZM70.4499 142.958H77.8419V143.868H69.3159V140.718H76.2879V139.444H69.2879V138.534H77.4219V141.572H70.4499V142.958ZM86.2828 134.74H88.7608V131.492H89.9228V138.968H88.7608V135.678H86.2828V134.74ZM86.9828 137.596L86.4088 138.492C85.0088 137.988 83.9308 136.952 83.3848 135.664C82.8528 137.12 81.6908 138.296 80.2208 138.856L79.6188 137.946C81.4948 137.26 82.7828 135.566 82.7828 133.76V133.326H79.9828V132.402H86.6888V133.326H83.9308V133.76C83.9308 135.37 85.1628 136.952 86.9828 137.596ZM85.7788 143.14C87.6688 143.14 88.8168 142.608 88.8168 141.698C88.8168 140.788 87.6688 140.242 85.7788 140.242C83.8888 140.242 82.7408 140.788 82.7408 141.698C82.7408 142.608 83.8888 143.14 85.7788 143.14ZM85.7788 139.36C88.3548 139.36 89.9648 140.214 89.9648 141.698C89.9648 143.182 88.3548 144.036 85.7788 144.036C83.2028 144.036 81.5928 143.182 81.5928 141.698C81.5928 140.214 83.2028 139.36 85.7788 139.36ZM97.6083 140.326V142.944H103.922V140.326H97.6083ZM96.4883 143.868V139.402H105.056V143.868H96.4883ZM104.678 136.77H106.484V137.694H95.0743V136.77H103.516C103.88 135.202 103.88 134.054 103.88 133.074H96.5303V132.15H105.014V133.074C105.014 134.054 105.014 135.202 104.678 136.77ZM108.709 135.23C108.709 136.392 109.479 137.232 110.529 137.232C111.565 137.232 112.335 136.392 112.335 135.23C112.335 134.068 111.565 133.228 110.529 133.228C109.479 133.228 108.709 134.068 108.709 135.23ZM113.385 135.23C113.385 136.98 112.167 138.184 110.529 138.184C108.877 138.184 107.673 136.98 107.673 135.23C107.673 133.466 108.877 132.262 110.529 132.262C112.167 132.262 113.385 133.466 113.385 135.23ZM109.703 140.592V139.668H118.145V144.05H116.997V140.592H109.703ZM117.039 131.478H118.145V138.954H117.039V135.65H115.443V138.884H114.365V131.716H115.443V134.712H117.039V131.478ZM125.676 132.556C123.618 132.556 122.442 133.032 122.442 133.872C122.442 134.712 123.618 135.188 125.676 135.188C127.734 135.188 128.91 134.712 128.91 133.872C128.91 133.032 127.734 132.556 125.676 132.556ZM125.676 136.042C122.918 136.042 121.266 135.286 121.266 133.872C121.266 132.458 122.918 131.688 125.676 131.688C128.434 131.688 130.086 132.458 130.086 133.872C130.086 135.286 128.434 136.042 125.676 136.042ZM122.526 141.726V143H130.282V143.896H121.406V140.886H128.77V139.766H121.364V138.898H129.904V141.726H122.526ZM119.992 136.896H131.36V137.82H119.992V136.896ZM144.702 138.184V134.32H141.118V133.396H144.702V131.478H145.864V138.184H144.702ZM142.784 135.678L142.924 136.63C140.978 137.008 139.27 137.12 137.198 137.12H136.232V132.08H137.394V136.154C139.326 136.154 140.95 136.042 142.784 135.678ZM141.72 143.182C143.19 143.182 144.086 142.804 144.086 142.16C144.086 141.516 143.19 141.152 141.72 141.152C140.236 141.152 139.354 141.516 139.354 142.16C139.354 142.804 140.236 143.182 141.72 143.182ZM141.72 140.312C143.89 140.312 145.22 140.984 145.22 142.16C145.22 143.35 143.89 144.022 141.72 144.022C139.536 144.022 138.22 143.35 138.22 142.16C138.22 140.984 139.536 140.312 141.72 140.312ZM142.294 138.884H146.144V139.78H137.282V138.884H141.146V137.638H142.294V138.884ZM153.647 132.262C156.251 132.262 158.211 133.648 158.211 135.734C158.211 137.834 156.251 139.206 153.647 139.206C151.043 139.206 149.083 137.834 149.083 135.734C149.083 133.648 151.043 132.262 153.647 132.262ZM153.647 133.2C151.673 133.2 150.175 134.222 150.175 135.734C150.175 137.26 151.673 138.268 153.647 138.268C155.635 138.268 157.119 137.26 157.119 135.734C157.119 134.222 155.635 133.2 153.647 133.2ZM147.963 141.418H159.373V142.37H147.963V141.418ZM166.652 137.946H169.634V135.426H166.652V137.946ZM165.518 139.948V133.62H162.06V139.948H165.518ZM169.634 131.478H170.782V144.064H169.634V138.884H166.652V140.858H160.94V132.71H166.652V134.488H169.634V131.478ZM174.265 141.496V142.515C174.265 142.929 174.16 143.367 173.95 143.827C173.741 144.292 173.447 144.679 173.068 144.989L172.351 144.49C172.496 144.29 172.62 144.085 172.72 143.875C172.82 143.67 172.895 143.456 172.945 143.232C173 143.014 173.027 142.781 173.027 142.535V141.496H174.265ZM182.405 137.512C181.453 136.924 180.935 135.93 180.655 134.908C180.333 135.916 179.745 136.84 178.793 137.386L178.191 136.574C179.605 135.748 180.123 134.04 180.123 132.836V131.996H181.229V132.836C181.229 133.774 181.467 135.244 182.405 136.224C183.343 135.272 183.595 133.844 183.595 132.85V132.01H183.819V131.996H184.673V132.836C184.673 134.194 185.205 135.804 186.619 136.574L186.003 137.386C185.051 136.868 184.463 136 184.141 134.992C183.861 136 183.343 136.966 182.405 137.526V137.512ZM184.393 143.182C186.003 143.182 186.913 142.832 186.913 142.202C186.913 141.572 186.003 141.222 184.393 141.222C182.755 141.222 181.845 141.572 181.845 142.202C181.845 142.832 182.755 143.182 184.393 143.182ZM184.393 140.382C186.689 140.382 188.047 141.026 188.047 142.202C188.047 143.378 186.689 144.022 184.393 144.022C182.069 144.022 180.725 143.378 180.725 142.202C180.725 141.026 182.069 140.382 184.393 140.382ZM184.967 137.666V138.898H188.817V139.78H179.941V138.898H183.805V137.666H184.967ZM188.299 134.194H189.909V135.146H188.299V138.156H187.151V131.492H188.299V134.194ZM201.052 131.492V140.662H199.904V131.492H201.052ZM192.162 135.44C192.162 136.686 193.086 137.554 194.304 137.554C195.55 137.554 196.474 136.686 196.474 135.44C196.474 134.222 195.55 133.354 194.304 133.354C193.086 133.354 192.162 134.222 192.162 135.44ZM197.594 135.44C197.594 137.26 196.18 138.548 194.304 138.548C192.442 138.548 191.042 137.26 191.042 135.44C191.042 133.634 192.442 132.36 194.304 132.36C196.18 132.36 197.594 133.634 197.594 135.44ZM194.122 142.818H201.43V143.756H192.974V139.724H194.122V142.818ZM208.779 140.326V142.944H215.093V140.326H208.779ZM207.659 143.868V139.402H216.227V143.868H207.659ZM215.849 136.77H217.655V137.694H206.245V136.77H214.687C215.051 135.202 215.051 134.054 215.051 133.074H207.701V132.15H216.185V133.074C216.185 134.054 216.185 135.202 215.849 136.77ZM219.88 135.23C219.88 136.392 220.65 137.232 221.7 137.232C222.736 137.232 223.506 136.392 223.506 135.23C223.506 134.068 222.736 133.228 221.7 133.228C220.65 133.228 219.88 134.068 219.88 135.23ZM224.556 135.23C224.556 136.98 223.338 138.184 221.7 138.184C220.048 138.184 218.844 136.98 218.844 135.23C218.844 133.466 220.048 132.262 221.7 132.262C223.338 132.262 224.556 133.466 224.556 135.23ZM220.874 140.592V139.668H229.316V144.05H228.168V140.592H220.874ZM228.21 131.478H229.316V138.954H228.21V135.65H226.614V138.884H225.536V131.716H226.614V134.712H228.21V131.478ZM234.019 140.214C234.999 140.214 235.643 138.94 235.643 136.882C235.643 134.866 234.999 133.592 234.019 133.592C233.011 133.592 232.381 134.866 232.381 136.882C232.381 138.94 233.011 140.214 234.019 140.214ZM238.261 136.364V131.758H239.353V143.42H238.261V137.302H236.679C236.581 139.766 235.559 141.278 234.019 141.278C232.381 141.278 231.331 139.598 231.331 136.882C231.331 134.208 232.381 132.528 234.019 132.528C235.531 132.528 236.539 133.998 236.679 136.364H238.261ZM240.753 131.478H241.845V144.036H240.753V131.478ZM254.095 137.526L253.521 138.422C252.121 137.918 251.043 136.868 250.497 135.58C249.951 137.022 248.803 138.17 247.333 138.702L246.731 137.806C248.593 137.134 249.895 135.468 249.895 133.69V133.214H247.095V132.276H253.801V133.214H251.043V133.676C251.043 135.314 252.275 136.882 254.095 137.526ZM249.993 140.354V142.944H255.915V140.354H249.993ZM248.873 143.868V139.444H257.035V143.868H248.873ZM255.873 131.478H257.035V138.828H255.873V135.58H253.395V134.628H255.873V131.478ZM266.554 137.526L265.98 138.422C264.58 137.918 263.502 136.868 262.956 135.58C262.41 137.022 261.262 138.17 259.792 138.702L259.19 137.806C261.052 137.134 262.354 135.468 262.354 133.69V133.214H259.554V132.276H266.26V133.214H263.502V133.676C263.502 135.314 264.734 136.882 266.554 137.526ZM262.452 140.354V142.944H268.374V140.354H262.452ZM261.332 143.868V139.444H269.494V143.868H261.332ZM268.332 131.478H269.494V138.828H268.332V135.58H265.854V134.628H268.332V131.478ZM283.787 131.478H284.935V144.064H283.787V131.478ZM278.313 132.444C280.175 132.444 281.505 134.152 281.505 136.826C281.505 139.5 280.175 141.208 278.313 141.208C276.451 141.208 275.121 139.5 275.121 136.826C275.121 134.152 276.451 132.444 278.313 132.444ZM278.313 133.48C277.081 133.48 276.213 134.796 276.213 136.826C276.213 138.87 277.081 140.186 278.313 140.186C279.531 140.186 280.399 138.87 280.399 136.826C280.399 134.796 279.531 133.48 278.313 133.48ZM291.346 133.718V135.314C291.346 137.316 292.774 139.542 294.594 140.396L293.936 141.32C292.536 140.62 291.36 139.15 290.786 137.47C290.212 139.304 288.994 140.9 287.58 141.628L286.908 140.718C288.7 139.822 290.212 137.442 290.212 135.314V133.718H287.342V132.766H294.132V133.718H291.346ZM298.85 136.546V137.512H296.778V144.036H295.63V131.492H296.778V136.546H298.85ZM300.249 132.822H305.989C305.989 136.392 304.351 139.626 300.291 141.656L299.661 140.76C302.867 139.15 304.589 136.742 304.855 133.774H300.249V132.822ZM311.253 136.574V137.526H309.237V144.036H308.089V131.478H309.237V136.574H311.253ZM323.824 135.034V133.802H317.72V135.034H323.824ZM324.958 131.716V135.916H316.586V131.716H317.72V132.934H323.824V131.716H324.958ZM326.442 137.918H321.332V139.206H325.112V140.06H317.65V141.096H324.804V141.936H317.65V143.042H325.238V143.896H316.502V139.206H320.184V137.918H315.074V136.994H326.442V137.918ZM337.613 135.258V136.196H329.073V131.94H330.221V135.258H337.613ZM330.137 140.06V142.79H337.683V143.728H328.989V140.06H330.137ZM327.533 137.876H338.915V138.8H327.533V137.876ZM354.427 137.694V138.632H349.303V144.05H348.141V138.632H343.073V137.694H351.403C351.795 135.888 351.795 134.558 351.795 133.382V133.214H344.487V132.29H352.915V133.382C352.915 134.558 352.915 135.888 352.565 137.694H354.427ZM356.554 138.884L356.064 137.946C358.234 137.582 360.614 135.832 360.614 133.83V133.564H356.456V132.626H365.962V133.564H361.804V133.83C361.804 135.832 364.198 137.554 366.382 137.904L365.92 138.828C364.002 138.45 362.014 137.218 361.216 135.496C360.418 137.232 358.444 138.478 356.554 138.884ZM361.79 141.474H366.914V142.426H355.518V141.474H360.642V138.436H361.79V141.474ZM28 175.98H42V161.98H28V175.98ZM55.3847 166.824V167.748H46.8867V163.954H55.2587V164.878H48.0347V166.824H55.3847ZM56.7287 169.68H51.6327V170.912H55.2727V173.74H47.8947V175H55.6507V175.882H46.7747V172.9H54.1387V171.794H46.7327V170.912H50.4847V169.68H45.3607V168.756H56.7287V169.68ZM62.5662 165.634V171.948C64.7922 171.948 66.4022 171.85 68.2222 171.528L68.3482 172.48C66.4302 172.844 64.7782 172.928 62.4122 172.928H61.4182V164.682H67.2562V165.634H62.5662ZM72.6182 168.434V169.386H70.5462V176.064H69.3982V163.478H70.5462V168.434H72.6182ZM80.7378 165.704V167.16C80.7378 169.246 82.2078 171.528 84.0278 172.396L83.3418 173.292C81.9418 172.578 80.7378 171.08 80.1638 169.344C79.6178 171.192 78.3998 172.802 76.9718 173.558L76.2998 172.648C78.0918 171.766 79.5898 169.386 79.5898 167.16V165.704H76.7478V164.766H83.5938V165.704H80.7378ZM85.5958 163.478H86.7438V176.05H85.5958V168.98H82.8798V168.042H85.5958V163.478ZM89.8927 169.092L89.5427 168.224C91.9087 167.986 93.8127 167.02 93.9107 165.62H90.0327V164.71H93.9667V163.408H95.1147V164.71H99.0487V165.62H95.1567C95.2547 167.02 97.1587 167.986 99.5387 168.224L99.1747 169.092C97.1167 168.882 95.2967 168.126 94.5407 166.866C93.7847 168.126 91.9507 168.882 89.8927 169.092ZM100.211 170.716H95.1147V172.158H98.8107V175.994H97.6627V173.068H90.1167V172.158H93.9667V170.716H88.8567V169.792H100.211V170.716ZM111.62 169.386L111.018 170.282C109.66 169.778 108.582 168.742 108.022 167.454C107.504 168.924 106.384 170.072 104.914 170.632L104.312 169.722C106.216 169.036 107.434 167.328 107.434 165.41V164.122H108.582V165.508C108.582 167.202 109.814 168.77 111.62 169.386ZM110.122 175.126C111.97 175.126 113.104 174.608 113.104 173.74C113.104 172.858 111.97 172.34 110.122 172.34C108.26 172.34 107.126 172.858 107.126 173.74C107.126 174.608 108.26 175.126 110.122 175.126ZM110.122 171.444C112.67 171.444 114.252 172.27 114.252 173.74C114.252 175.196 112.67 176.022 110.122 176.022C107.56 176.022 105.978 175.196 105.978 173.74C105.978 172.27 107.56 171.444 110.122 171.444ZM114.112 166.726H115.974V167.678H114.112V171.094H112.964V163.492H114.112V166.726ZM124.051 167.44V164.808H120.929V167.44H124.051ZM119.781 167.44V164.808H117.891V163.884H127.103V164.808H125.199V167.44H127.047V168.364H117.933V167.44H119.781ZM125.675 174.944V172.858H119.347V174.944H125.675ZM128.181 170.478H123.085V171.948H126.795V175.868H118.227V171.948H121.937V170.478H116.827V169.554H128.181V170.478ZM138.414 163.478H139.562V176.064H138.414V163.478ZM132.94 164.444C134.802 164.444 136.132 166.152 136.132 168.826C136.132 171.5 134.802 173.208 132.94 173.208C131.078 173.208 129.748 171.5 129.748 168.826C129.748 166.152 131.078 164.444 132.94 164.444ZM132.94 165.48C131.708 165.48 130.84 166.796 130.84 168.826C130.84 170.87 131.708 172.186 132.94 172.186C134.158 172.186 135.026 170.87 135.026 168.826C135.026 166.796 134.158 165.48 132.94 165.48ZM150.607 165.984V165.676H142.949V164.738H151.755V165.984C151.755 167.538 151.755 169.26 151.279 171.794L150.131 171.668C150.607 169.26 150.607 167.496 150.607 165.984ZM147.317 173.334H153.113V174.272H141.759V173.334H146.169V168.84H147.317V173.334ZM155.574 173.496V174.515C155.574 174.929 155.469 175.367 155.26 175.827C155.05 176.292 154.756 176.679 154.378 176.989L153.66 176.49C153.806 176.29 153.929 176.085 154.029 175.875C154.13 175.67 154.205 175.456 154.255 175.232C154.31 175.014 154.337 174.781 154.337 174.535V173.496H155.574ZM169.608 166.824V167.748H161.11V163.954H169.482V164.878H162.258V166.824H169.608ZM170.952 169.68H165.856V170.912H169.496V173.74H162.118V175H169.874V175.882H160.998V172.9H168.362V171.794H160.956V170.912H164.708V169.68H159.584V168.756H170.952V169.68ZM176.79 165.634V171.948C179.016 171.948 180.626 171.85 182.446 171.528L182.572 172.48C180.654 172.844 179.002 172.928 176.636 172.928H175.642V164.682H181.48V165.634H176.79ZM186.842 168.434V169.386H184.77V176.064H183.622V163.478H184.77V168.434H186.842ZM199.749 163.478H200.897V176.064H199.749V163.478ZM194.275 164.444C196.137 164.444 197.467 166.152 197.467 168.826C197.467 171.5 196.137 173.208 194.275 173.208C192.413 173.208 191.083 171.5 191.083 168.826C191.083 166.152 192.413 164.444 194.275 164.444ZM194.275 165.48C193.043 165.48 192.175 166.796 192.175 168.826C192.175 170.87 193.043 172.186 194.275 172.186C195.493 172.186 196.361 170.87 196.361 168.826C196.361 166.796 195.493 165.48 194.275 165.48ZM207.308 165.718V167.314C207.308 169.316 208.736 171.542 210.556 172.396L209.898 173.32C208.498 172.62 207.322 171.15 206.748 169.47C206.174 171.304 204.956 172.9 203.542 173.628L202.87 172.718C204.662 171.822 206.174 169.442 206.174 167.314V165.718H203.304V164.766H210.094V165.718H207.308ZM214.812 168.546V169.512H212.74V176.036H211.592V163.492H212.74V168.546H214.812ZM216.211 164.822H221.951C221.951 168.392 220.313 171.626 216.253 173.656L215.623 172.76C218.829 171.15 220.551 168.742 220.817 165.774H216.211V164.822ZM227.215 168.574V169.526H225.199V176.036H224.051V163.478H225.199V168.574H227.215ZM239.787 167.034V165.802H233.683V167.034H239.787ZM240.921 163.716V167.916H232.549V163.716H233.683V164.934H239.787V163.716H240.921ZM242.405 169.918H237.295V171.206H241.075V172.06H233.613V173.096H240.767V173.936H233.613V175.042H241.201V175.896H232.465V171.206H236.147V169.918H231.037V168.994H242.405V169.918ZM253.576 167.258V168.196H245.036V163.94H246.184V167.258H253.576ZM246.1 172.06V174.79H253.646V175.728H244.952V172.06H246.1ZM243.496 169.876H254.878V170.8H243.496V169.876ZM257.649 165.634V171.948C259.875 171.948 261.485 171.85 263.305 171.528L263.431 172.48C261.513 172.844 259.861 172.928 257.495 172.928H256.501V164.682H262.339V165.634H257.649ZM267.701 168.434V169.386H265.629V176.064H264.481V163.478H265.629V168.434H267.701ZM28 207.98H42V193.98H28V207.98ZM46.0467 196.822H51.7867C51.7867 200.392 50.1487 203.626 46.0887 205.656L45.4587 204.76C48.6647 203.15 50.3867 200.742 50.6527 197.774H46.0467V196.822ZM57.0507 200.574V201.526H55.0347V208.036H53.8867V195.478H55.0347V200.574H57.0507ZM65.1136 201.554L64.5676 202.45C63.1396 201.988 62.0616 200.994 61.5296 199.748C60.9976 201.176 59.8636 202.296 58.3656 202.828L57.7776 201.918C59.6676 201.26 60.9276 199.636 60.9276 197.83V197.34H58.1136V196.416H64.8476V197.34H62.0756V197.83C62.0756 199.468 63.2656 200.938 65.1136 201.554ZM63.5876 207.112C65.4356 207.112 66.5696 206.594 66.5696 205.698C66.5696 204.816 65.4356 204.298 63.5876 204.298C61.7116 204.298 60.5916 204.816 60.5916 205.698C60.5916 206.594 61.7116 207.112 63.5876 207.112ZM63.5876 203.388C66.1356 203.388 67.7176 204.242 67.7176 205.698C67.7176 207.168 66.1356 208.022 63.5876 208.022C61.0116 208.022 59.4436 207.168 59.4436 205.698C59.4436 204.242 61.0116 203.388 63.5876 203.388ZM67.5776 198.656H69.4396V199.622H67.5776V203.066H66.4296V195.492H67.5776V198.656ZM74.3951 200.602L73.9891 199.692C76.1871 199.44 78.1891 198.362 78.2871 196.976H74.3951V196.052H83.6771V196.976H79.7711C79.8691 198.362 81.8711 199.44 84.0691 199.692L83.6631 200.602C81.6051 200.35 79.7291 199.426 79.0291 198.04C78.3431 199.426 76.4531 200.35 74.3951 200.602ZM82.1511 205.81C82.1511 204.97 80.9751 204.494 79.0151 204.494C77.0411 204.494 75.8791 204.97 75.8791 205.81C75.8791 206.65 77.0411 207.14 79.0151 207.14C80.9751 207.14 82.1511 206.65 82.1511 205.81ZM84.6991 202.282H79.6031V203.626C81.9411 203.738 83.3131 204.508 83.3131 205.81C83.3131 207.238 81.7031 208.022 79.0291 208.022C76.3411 208.022 74.7171 207.238 74.7171 205.81C74.7171 204.508 76.1031 203.738 78.4411 203.626V202.282H73.3451V201.358H84.6991V202.282ZM89.738 202.52V205.474H93.238V202.52C92.706 202.646 92.104 202.716 91.474 202.716C90.858 202.716 90.256 202.646 89.738 202.52ZM91.474 197.172C89.458 197.172 88.016 198.096 88.016 199.496C88.016 200.896 89.458 201.82 91.474 201.82C93.49 201.82 94.946 200.896 94.946 199.496C94.946 198.096 93.49 197.172 91.474 197.172ZM94.386 205.474H97.2V206.426H85.79V205.474H88.59V202.086C87.54 201.54 86.91 200.63 86.91 199.496C86.91 197.536 88.814 196.276 91.474 196.276C94.148 196.276 96.038 197.536 96.038 199.496C96.038 200.63 95.422 201.526 94.386 202.072V205.474ZM105.711 197.018V197.942H98.3049V197.018H101.427V195.478H102.575V197.018H105.711ZM100.097 200.966C100.097 201.848 100.867 202.408 102.001 202.408C103.135 202.408 103.919 201.848 103.919 200.966C103.919 200.098 103.135 199.538 102.001 199.538C100.867 199.538 100.097 200.098 100.097 200.966ZM105.011 200.966C105.011 202.38 103.779 203.304 102.001 203.304C100.223 203.304 99.0049 202.38 99.0049 200.966C99.0049 199.566 100.223 198.642 102.001 198.642C103.779 198.642 105.011 199.566 105.011 200.966ZM101.343 204.158V206.818H108.567V207.756H100.195V204.158H101.343ZM108.007 199.622H109.855V200.588H108.007V204.9H106.859V195.478H108.007V199.622ZM117.975 198.572V199.552C117.975 201.568 119.221 203.626 121.027 204.494L120.383 205.39C119.011 204.718 117.947 203.346 117.415 201.736C116.883 203.458 115.735 204.914 114.307 205.614L113.663 204.746C115.497 203.85 116.841 201.722 116.841 199.552V198.572H113.999V197.648H116.827V195.702H117.975V197.648H120.761V198.572H117.975ZM125.507 200.644V201.596H123.435V208.036H122.287V195.478H123.435V200.644H125.507ZM135.361 195.478H136.509V208.064H135.361V195.478ZM129.887 196.444C131.749 196.444 133.079 198.152 133.079 200.826C133.079 203.5 131.749 205.208 129.887 205.208C128.025 205.208 126.695 203.5 126.695 200.826C126.695 198.152 128.025 196.444 129.887 196.444ZM129.887 197.48C128.655 197.48 127.787 198.796 127.787 200.826C127.787 202.87 128.655 204.186 129.887 204.186C131.105 204.186 131.973 202.87 131.973 200.826C131.973 198.796 131.105 197.48 129.887 197.48ZM148.758 199.258V200.196H140.218V195.94H141.366V199.258H148.758ZM141.282 204.06V206.79H148.828V207.728H140.134V204.06H141.282ZM138.678 201.876H150.06V202.8H138.678V201.876ZM154.125 199.665V198.838C154.125 198.56 154.171 198.271 154.262 197.97C154.357 197.664 154.494 197.373 154.672 197.095C154.85 196.812 155.064 196.568 155.314 196.363L156.032 196.862C155.823 197.163 155.661 197.473 155.547 197.792C155.433 198.106 155.376 198.448 155.376 198.817V199.665H154.125ZM159.191 204.144V206.818H166.751V207.756H158.043V204.144H159.191ZM162.845 202.086H167.955V203.01H156.587V202.086H161.697V200.448H158.015V196.122H166.541V197.046H159.163V199.51H166.653V200.448H162.845V202.086ZM174.716 196.556C172.658 196.556 171.482 197.032 171.482 197.872C171.482 198.712 172.658 199.188 174.716 199.188C176.774 199.188 177.95 198.712 177.95 197.872C177.95 197.032 176.774 196.556 174.716 196.556ZM174.716 200.042C171.958 200.042 170.306 199.286 170.306 197.872C170.306 196.458 171.958 195.688 174.716 195.688C177.474 195.688 179.126 196.458 179.126 197.872C179.126 199.286 177.474 200.042 174.716 200.042ZM171.566 205.726V207H179.322V207.896H170.446V204.886H177.81V203.766H170.404V202.898H178.944V205.726H171.566ZM169.032 200.896H180.4V201.82H169.032V200.896ZM187.917 204.186C189.107 204.186 189.947 202.87 189.947 200.826C189.947 198.796 189.107 197.48 187.917 197.48C186.713 197.48 185.873 198.796 185.873 200.826C185.873 202.87 186.713 204.186 187.917 204.186ZM193.755 195.478H194.903V208.064H193.755V201.204H191.025C190.913 203.668 189.667 205.208 187.917 205.208C186.083 205.208 184.781 203.5 184.781 200.826C184.781 198.152 186.083 196.444 187.917 196.444C189.611 196.444 190.843 197.914 191.025 200.266H193.755V195.478ZM204.086 198.096H206.326V195.492H207.488V202.156H206.326V198.978H204.086V198.096ZM205.136 200.07L205.234 200.966C204.114 201.218 203.204 201.26 201.804 201.26H201.188V196.094H204.66V197.004H202.322V200.35C203.386 200.336 204.212 200.28 205.136 200.07ZM200.656 200.084L200.754 200.994C199.606 201.246 198.682 201.26 197.912 201.26H197.352V196.094H200.488V197.004H198.486V200.336C199.102 200.322 199.83 200.266 200.656 200.084ZM203.218 207.21C204.688 207.21 205.57 206.86 205.57 206.244C205.57 205.6 204.688 205.25 203.218 205.25C201.734 205.25 200.866 205.6 200.866 206.244C200.866 206.86 201.734 207.21 203.218 207.21ZM203.218 204.438C205.458 204.438 206.76 205.068 206.76 206.244C206.76 207.406 205.458 208.036 203.218 208.036C200.978 208.036 199.676 207.406 199.676 206.244C199.676 205.068 200.978 204.438 203.218 204.438ZM203.806 202.968H207.698V203.85H198.752V202.968H202.658V201.764H203.806V202.968ZM216.433 200.616V195.814H217.525V207.406H216.433V201.54H213.857C213.101 202.996 211.897 204.298 210.161 205.334L209.489 204.508C212.177 202.898 213.521 200.644 213.731 198.012H210.021V197.074H214.865C214.865 198.306 214.683 199.496 214.263 200.616H216.433ZM219.051 195.478H220.143V208.036H219.051V195.478ZM234.17 202.184V198.32H230.586V197.396H234.17V195.478H235.332V202.184H234.17ZM232.252 199.678L232.392 200.63C230.446 201.008 228.738 201.12 226.666 201.12H225.7V196.08H226.862V200.154C228.794 200.154 230.418 200.042 232.252 199.678ZM231.188 207.182C232.658 207.182 233.554 206.804 233.554 206.16C233.554 205.516 232.658 205.152 231.188 205.152C229.704 205.152 228.822 205.516 228.822 206.16C228.822 206.804 229.704 207.182 231.188 207.182ZM231.188 204.312C233.358 204.312 234.688 204.984 234.688 206.16C234.688 207.35 233.358 208.022 231.188 208.022C229.004 208.022 227.688 207.35 227.688 206.16C227.688 204.984 229.004 204.312 231.188 204.312ZM231.762 202.884H235.612V203.78H226.75V202.884H230.614V201.638H231.762V202.884ZM247.525 201.162V202.1H238.831V196.584H239.979V201.162H247.525ZM237.431 205.362H248.827V206.314H237.431V205.362ZM251.542 196.696V203.892C253.348 203.892 255.21 203.738 257.24 203.318L257.38 204.312C255.238 204.732 253.32 204.872 251.402 204.872H250.408V196.696H251.542ZM261.524 199.594H259.564V202.366H261.524V203.318H259.564V208.036H258.416V195.464H259.564V198.642H261.524V199.594ZM263.863 196.5V197.375C263.863 197.648 263.816 197.938 263.72 198.243C263.629 198.544 263.494 198.836 263.316 199.118C263.139 199.396 262.925 199.64 262.674 199.85L261.949 199.351C262.163 199.05 262.325 198.742 262.435 198.428C262.549 198.109 262.606 197.765 262.606 197.396V196.5H263.863ZM266.472 197.047L266.383 204.19H265.241L265.146 197.047H266.472ZM265.104 206.364C265.104 206.159 265.166 205.986 265.289 205.845C265.417 205.703 265.604 205.633 265.85 205.633C266.091 205.633 266.276 205.703 266.403 205.845C266.535 205.986 266.602 206.159 266.602 206.364C266.602 206.56 266.535 206.729 266.403 206.87C266.276 207.011 266.091 207.082 265.85 207.082C265.604 207.082 265.417 207.011 265.289 206.87C265.166 206.729 265.104 206.56 265.104 206.364Z" fill="black"/>
</g>
<defs>
<filter id="filter0_d_489_4911" x="0" y="0" width="404" height="238" filterUnits="userSpaceOnUse" color-interpolation-filters="sRGB">
<feFlood flood-opacity="0" result="BackgroundImageFix"/>
<feColorMatrix in="SourceAlpha" type="matrix" values="0 0 0 0 0 0 0 0 0 0 0 0 0 0 0 0 0 0 127 0" result="hardAlpha"/>
<feOffset/>
<feGaussianBlur stdDeviation="6"/>
<feComposite in2="hardAlpha" operator="out"/>
<feColorMatrix type="matrix" values="0 0 0 0 0 0 0 0 0 0 0 0 0 0 0 0 0 0 0.08 0"/>
<feBlend mode="normal" in2="BackgroundImageFix" result="effect1_dropShadow_489_4911"/>
<feBlend mode="normal" in="SourceGraphic" in2="effect1_dropShadow_489_4911" result="shape"/>
</filter>
</defs>
</svg>
