<svg width="68" height="68" viewBox="0 0 68 68" fill="none" xmlns="http://www.w3.org/2000/svg">
<rect width="68" height="68" rx="34" fill="url(#paint0_linear_474_4093)"/>
<path d="M30.2387 41.5338C29.8201 41.5335 29.4145 41.3884 29.0908 41.123L23.6775 36.6884C22.9373 36.0453 22.8426 34.9303 23.4639 34.1717C24.0851 33.4131 25.197 33.2861 25.9733 33.885L30.1662 37.3167L42.2495 26.188C42.7037 25.6479 43.43 25.4206 44.1111 25.6052C44.7921 25.7899 45.3041 26.3531 45.4232 27.0486C45.5423 27.7441 45.247 28.4455 44.6662 28.8463L31.4712 41.0505C31.1373 41.3633 30.6962 41.5363 30.2387 41.5338Z" fill="white"/>
<defs>
<linearGradient id="paint0_linear_474_4093" x1="-5.56897" y1="1.54496e-06" x2="83.967" y2="23.0671" gradientUnits="userSpaceOnUse">
<stop stop-color="#448FFF"/>
<stop offset="1" stop-color="#4833D0"/>
</linearGradient>
</defs>
</svg>
