<svg width="32" height="32" viewBox="0 0 32 32" fill="none" xmlns="http://www.w3.org/2000/svg">
	<rect width="32" height="32" fill="white"/>
	<path d="M16.2828 15.755L20.6928 15.7763C24.0751 15.7763 26.8153 18.504 26.8153 21.8709H16.2828V24.7264C16.2828 25.387 15.7477 25.9197 15.084 25.9197H6.8208C6.15718 25.9197 5.60059 25.387 5.60059 24.7051V7.93438C5.60059 7.27378 6.13577 6.71973 6.8208 6.71973H27.2006C27.2006 10.8751 23.8182 14.242 19.6438 14.242H16.2828" fill="#448FFF"/>
	<path d="M11.3597 13.9196C12.2875 13.9196 13.0397 13.1674 13.0397 12.2396C13.0397 11.3117 12.2875 10.5596 11.3597 10.5596C10.4318 10.5596 9.67969 11.3117 9.67969 12.2396C9.67969 13.1674 10.4318 13.9196 11.3597 13.9196Z" fill="white"/>
</svg>
<svg width="32" height="32" viewBox="0 0 32 32" fill="none" xmlns="http://www.w3.org/2000/svg">
<rect width="32" height="32" fill="white"/>
<path d="M16.2828 15.755L20.6928 15.7763C24.0751 15.7763 26.8153 18.504 26.8153 21.8709H16.2828V24.7264C16.2828 25.387 15.7477 25.9197 15.084 25.9197H6.8208C6.15718 25.9197 5.60059 25.387 5.60059 24.7051V7.93438C5.60059 7.27378 6.13577 6.71973 6.8208 6.71973H27.2006C27.2006 10.8751 23.8182 14.242 19.6438 14.242H16.2828" fill="#448FFF"/>
<path d="M11.3597 13.9196C12.2875 13.9196 13.0397 13.1674 13.0397 12.2396C13.0397 11.3117 12.2875 10.5596 11.3597 10.5596C10.4318 10.5596 9.67969 11.3117 9.67969 12.2396C9.67969 13.1674 10.4318 13.9196 11.3597 13.9196Z" fill="white"/>
</svg>
